<?xml version="1.0" encoding="UTF-8" standalone="no"?>
<svg
   width="637.425pt"
   height="456.6925pt"
   viewBox="0 0 637.425 456.6925"
   version="1.1"
   id="svg417"
   sodipodi:docname="yolo.svg"
   xml:space="preserve"
   xmlns:inkscape="http://www.inkscape.org/namespaces/inkscape"
   xmlns:sodipodi="http://sodipodi.sourceforge.net/DTD/sodipodi-0.dtd"
   xmlns:xlink="http://www.w3.org/1999/xlink"
   xmlns="http://www.w3.org/2000/svg"
   xmlns:svg="http://www.w3.org/2000/svg"
   xmlns:rdf="http://www.w3.org/1999/02/22-rdf-syntax-ns#"
   xmlns:cc="http://creativecommons.org/ns#"
   xmlns:dc="http://purl.org/dc/elements/1.1/"><sodipodi:namedview
     id="namedview419"
     pagecolor="#ffffff"
     bordercolor="#666666"
     borderopacity="1.0"
     inkscape:showpageshadow="2"
     inkscape:pageopacity="0.0"
     inkscape:pagecheckerboard="0"
     inkscape:deskcolor="#d1d1d1"
     inkscape:document-units="pt"
     showgrid="false" /><metadata
     id="metadata2"><rdf:RDF><cc:Work><dc:type
           rdf:resource="http://purl.org/dc/dcmitype/StillImage" /><dc:date>2025-04-28T13:48:16.216564</dc:date><dc:format>image/svg+xml</dc:format><dc:creator><cc:Agent><dc:title>Matplotlib v3.6.3, https://matplotlib.org/</dc:title></cc:Agent></dc:creator></cc:Work></rdf:RDF></metadata><defs
     id="defs6"><style
       type="text/css"
       id="style4">*{stroke-linejoin: round; stroke-linecap: butt}</style><style
       type="text/css"
       id="style650">*{stroke-linejoin: round; stroke-linecap: butt}</style><path
       id="m58049e87a6"
       d="M 0 0  L 0 8  "
       style="stroke: #000000; stroke-width: 2" /><path
       id="DejaVuSerif-2212-9"
       d="M 678 2259  L 4684 2259  L 4684 1753  L 678 1753  L 678 2259  z "
       transform="scale(0.015625)" /><path
       id="DejaVuSerif-31-1"
       d="M 909 0  L 909 331  L 1722 331  L 1722 4213  L 781 3603  L 781 4013  L 1919 4750  L 2350 4750  L 2350 331  L 3163 331  L 3163 0  L 909 0  z "
       transform="scale(0.015625)" /><path
       id="DejaVuSerif-35-2"
       d="M 3219 4666  L 3219 4153  L 1081 4153  L 1081 2816  Q 1244 2928 1461 2984  Q 1678 3041 1947 3041  Q 2703 3041 3140 2622  Q 3578 2203 3578 1478  Q 3578 738 3136 323  Q 2694 -91 1894 -91  Q 1572 -91 1234 -12  Q 897 66 544 225  L 544 1131  L 897 1131  Q 925 688 1179 453  Q 1434 219 1894 219  Q 2388 219 2653 544  Q 2919 869 2919 1478  Q 2919 2084 2655 2407  Q 2391 2731 1894 2731  Q 1613 2731 1398 2631  Q 1184 2531 1019 2322  L 750 2322  L 750 4666  L 3219 4666  z "
       transform="scale(0.015625)" /><path
       id="DejaVuSerif-30-3"
       d="M 2034 219  Q 2513 219 2750 744  Q 2988 1269 2988 2328  Q 2988 3391 2750 3916  Q 2513 4441 2034 4441  Q 1556 4441 1318 3916  Q 1081 3391 1081 2328  Q 1081 1269 1318 744  Q 1556 219 2034 219  z M 2034 -91  Q 1275 -91 848 546  Q 422 1184 422 2328  Q 422 3475 848 4112  Q 1275 4750 2034 4750  Q 2797 4750 3222 4112  Q 3647 3475 3647 2328  Q 3647 1184 3222 546  Q 2797 -91 2034 -91  z "
       transform="scale(0.015625)" /><path
       id="m0ceab068d5"
       d="M 0 0  L 0 4  "
       style="stroke: #000000; stroke-width: 2" /><path
       id="DejaVuSerif-45-8"
       d="M 353 0  L 353 331  L 947 331  L 947 4331  L 353 4331  L 353 4666  L 4109 4666  L 4109 3628  L 3725 3628  L 3725 4281  L 1581 4281  L 1581 2719  L 3109 2719  L 3109 3303  L 3494 3303  L 3494 1753  L 3109 1753  L 3109 2338  L 1581 2338  L 1581 384  L 3775 384  L 3775 1038  L 4159 1038  L 4159 0  L 353 0  z "
       transform="scale(0.015625)" /><path
       id="DejaVuSerif-20-9"
       transform="scale(0.015625)" /><path
       id="DejaVuSerif-2d-7"
       d="M 281 1959  L 1881 1959  L 1881 1472  L 281 1472  L 281 1959  z "
       transform="scale(0.015625)" /><path
       id="DejaVuSans-46-3"
       d="M 628 4666  L 3309 4666  L 3309 4134  L 1259 4134  L 1259 2759  L 3109 2759  L 3109 2228  L 1259 2228  L 1259 0  L 628 0  L 628 4666  z "
       transform="scale(0.015625)" /><path
       id="DejaVuSerif-28-6"
       d="M 2041 -997  Q 1281 -656 893 83  Q 506 822 506 1931  Q 506 3044 893 3783  Q 1281 4522 2041 4863  L 2041 4556  Q 1559 4225 1350 3623  Q 1141 3022 1141 1931  Q 1141 844 1350 242  Q 1559 -359 2041 -691  L 2041 -997  z "
       transform="scale(0.015625)" /><path
       id="DejaVuSerif-65-1"
       d="M 3469 1600  L 991 1600  L 991 1575  Q 991 903 1244 561  Q 1497 219 1991 219  Q 2369 219 2611 417  Q 2853 616 2950 1006  L 3413 1006  Q 3275 459 2904 184  Q 2534 -91 1931 -91  Q 1203 -91 761 389  Q 319 869 319 1663  Q 319 2450 753 2931  Q 1188 3413 1894 3413  Q 2647 3413 3050 2948  Q 3453 2484 3469 1600  z M 2791 1931  Q 2772 2513 2545 2808  Q 2319 3103 1894 3103  Q 1497 3103 1269 2806  Q 1041 2509 991 1931  L 2791 1931  z "
       transform="scale(0.015625)" /><path
       id="DejaVuSerif-56-2"
       d="M 1119 4331  L 2497 750  L 3872 4331  L 3347 4331  L 3347 4666  L 4716 4666  L 4716 4331  L 4263 4331  L 2597 0  L 2059 0  L 403 4331  L -63 4331  L -63 4666  L 1638 4666  L 1638 4331  L 1119 4331  z "
       transform="scale(0.015625)" /><path
       id="DejaVuSerif-29-9"
       d="M 453 -997  L 453 -691  Q 934 -359 1145 242  Q 1356 844 1356 1931  Q 1356 3022 1145 3623  Q 934 4225 453 4556  L 453 4863  Q 1216 4522 1603 3783  Q 1991 3044 1991 1931  Q 1991 822 1603 83  Q 1216 -656 453 -997  z "
       transform="scale(0.015625)" /><path
       id="DejaVuSerif-2e-8"
       d="M 603 325  Q 603 500 722 622  Q 841 744 1019 744  Q 1191 744 1312 622  Q 1434 500 1434 325  Q 1434 153 1312 31  Q 1191 -91 1019 -91  Q 841 -91 722 29  Q 603 150 603 325  z "
       transform="scale(0.015625)" /><path
       id="DejaVuSerif-32-7"
       d="M 819 3553  L 469 3553  L 469 4384  Q 803 4563 1142 4656  Q 1481 4750 1806 4750  Q 2534 4750 2956 4397  Q 3378 4044 3378 3438  Q 3378 2753 2422 1800  Q 2347 1728 2309 1691  L 1131 513  L 3078 513  L 3078 1088  L 3444 1088  L 3444 0  L 434 0  L 434 341  L 1850 1753  Q 2319 2222 2519 2614  Q 2719 3006 2719 3438  Q 2719 3909 2473 4175  Q 2228 4441 1797 4441  Q 1350 4441 1106 4219  Q 863 3997 819 3553  z "
       transform="scale(0.015625)" /><path
       id="DejaVuSerif-33-2"
       d="M 622 4469  Q 988 4606 1323 4678  Q 1659 4750 1953 4750  Q 2638 4750 3022 4454  Q 3406 4159 3406 3634  Q 3406 3213 3140 2930  Q 2875 2647 2388 2547  Q 2963 2466 3280 2130  Q 3597 1794 3597 1259  Q 3597 606 3158 257  Q 2719 -91 1894 -91  Q 1528 -91 1179 -12  Q 831 66 488 225  L 488 1131  L 838 1131  Q 869 681 1141 450  Q 1413 219 1906 219  Q 2384 219 2661 495  Q 2938 772 2938 1253  Q 2938 1803 2653 2086  Q 2369 2369 1819 2369  L 1522 2369  L 1522 2688  L 1678 2688  Q 2225 2688 2498 2914  Q 2772 3141 2772 3597  Q 2772 4006 2547 4223  Q 2322 4441 1900 4441  Q 1478 4441 1245 4241  Q 1013 4041 972 3647  L 622 3647  L 622 4469  z "
       transform="scale(0.015625)" /><path
       id="DejaVuSerif-50-3"
       d="M 1581 2375  L 2406 2375  Q 2872 2375 3115 2626  Q 3359 2878 3359 3353  Q 3359 3831 3115 4081  Q 2872 4331 2406 4331  L 1581 4331  L 1581 2375  z M 353 0  L 353 331  L 947 331  L 947 4331  L 353 4331  L 353 4666  L 2559 4666  Q 3259 4666 3668 4311  Q 4078 3956 4078 3353  Q 4078 2753 3668 2397  Q 3259 2041 2559 2041  L 1581 2041  L 1581 331  L 2303 331  L 2303 0  L 353 0  z "
       transform="scale(0.015625)" /><path
       id="DejaVuSerif-44-0"
       d="M 1581 331  L 2163 331  Q 3072 331 3558 850  Q 4044 1369 4044 2338  Q 4044 3306 3559 3818  Q 3075 4331 2163 4331  L 1581 4331  L 1581 331  z M 353 0  L 353 331  L 947 331  L 947 4331  L 353 4331  L 353 4666  L 2209 4666  Q 3416 4666 4089 4050  Q 4763 3434 4763 2338  Q 4763 1238 4088 619  Q 3413 0 2209 0  L 353 0  z "
       transform="scale(0.015625)" /><path
       id="DejaVuSerif-4f-7"
       d="M 2625 244  Q 3391 244 3781 770  Q 4172 1297 4172 2328  Q 4172 3363 3781 3889  Q 3391 4416 2625 4416  Q 1856 4416 1465 3889  Q 1075 3363 1075 2328  Q 1075 1297 1465 770  Q 1856 244 2625 244  z M 2625 -91  Q 2150 -91 1751 65  Q 1353 222 1050 525  Q 700 875 529 1319  Q 359 1763 359 2328  Q 359 2894 529 3339  Q 700 3784 1050 4134  Q 1356 4441 1750 4595  Q 2144 4750 2625 4750  Q 3641 4750 4266 4084  Q 4891 3419 4891 2328  Q 4891 1769 4719 1320  Q 4547 872 4197 525  Q 3891 219 3497 64  Q 3103 -91 2625 -91  z "
       transform="scale(0.015625)" /><path
       id="DejaVuSerif-53-8"
       d="M 594 225  L 594 1288  L 953 1284  Q 969 753 1261 498  Q 1553 244 2150 244  Q 2706 244 2998 464  Q 3291 684 3291 1106  Q 3291 1444 3114 1625  Q 2938 1806 2369 1978  L 1753 2163  Q 1084 2366 811 2669  Q 538 2972 538 3500  Q 538 4094 959 4422  Q 1381 4750 2144 4750  Q 2469 4750 2856 4679  Q 3244 4609 3681 4475  L 3681 3481  L 3328 3481  Q 3275 3975 2998 4195  Q 2722 4416 2156 4416  Q 1663 4416 1405 4214  Q 1147 4013 1147 3628  Q 1147 3294 1340 3103  Q 1534 2913 2163 2725  L 2741 2553  Q 3375 2363 3645 2067  Q 3916 1772 3916 1275  Q 3916 597 3481 253  Q 3047 -91 2188 -91  Q 1803 -91 1404 -12  Q 1006 66 594 225  z "
       transform="scale(0.015625)" /><path
       id="DejaVuSerif-61-6"
       d="M 2547 1044  L 2547 1747  L 1806 1747  Q 1378 1747 1168 1562  Q 959 1378 959 997  Q 959 650 1171 447  Q 1384 244 1747 244  Q 2106 244 2326 466  Q 2547 688 2547 1044  z M 3122 2075  L 3122 331  L 3634 331  L 3634 0  L 2547 0  L 2547 359  Q 2356 128 2106 18  Q 1856 -91 1522 -91  Q 969 -91 644 203  Q 319 497 319 997  Q 319 1513 691 1797  Q 1063 2081 1741 2081  L 2547 2081  L 2547 2309  Q 2547 2688 2317 2895  Q 2088 3103 1672 3103  Q 1328 3103 1125 2947  Q 922 2791 872 2484  L 575 2484  L 575 3156  Q 875 3284 1158 3348  Q 1441 3413 1709 3413  Q 2400 3413 2761 3070  Q 3122 2728 3122 2075  z "
       transform="scale(0.015625)" /><path
       id="DejaVuSerif-75-8"
       d="M 2266 3322  L 3341 3322  L 3341 331  L 3884 331  L 3884 0  L 2766 0  L 2766 588  Q 2606 256 2353 82  Q 2100 -91 1766 -91  Q 1213 -91 952 223  Q 691 538 691 1209  L 691 2988  L 172 2988  L 172 3322  L 1269 3322  L 1269 1388  Q 1269 781 1417 556  Q 1566 331 1947 331  Q 2347 331 2556 625  Q 2766 919 2766 1478  L 2766 2988  L 2266 2988  L 2266 3322  z "
       transform="scale(0.015625)" /><path
       id="DejaVuSerif-41-6"
       d="M 1281 1691  L 2994 1691  L 2138 3909  L 1281 1691  z M -38 0  L -38 331  L 372 331  L 2034 4666  L 2559 4666  L 4225 331  L 4684 331  L 4684 0  L 2988 0  L 2988 331  L 3506 331  L 3116 1356  L 1153 1356  L 763 331  L 1275 331  L 1275 0  L -38 0  z "
       transform="scale(0.015625)" /><path
       id="DejaVuSerif-42-2"
       d="M 1581 331  L 2516 331  Q 3078 331 3337 575  Q 3597 819 3597 1350  Q 3597 1878 3339 2120  Q 3081 2363 2516 2363  L 1581 2363  L 1581 331  z M 1581 2694  L 2375 2694  Q 2888 2694 3123 2891  Q 3359 3088 3359 3513  Q 3359 3941 3123 4136  Q 2888 4331 2375 4331  L 1581 4331  L 1581 2694  z M 353 0  L 353 331  L 947 331  L 947 4331  L 353 4331  L 353 4666  L 2656 4666  Q 3363 4666 3720 4377  Q 4078 4088 4078 3513  Q 4078 3097 3829 2850  Q 3581 2603 3103 2547  Q 3697 2472 4005 2167  Q 4313 1863 4313 1350  Q 4313 656 3875 328  Q 3438 0 2509 0  L 353 0  z "
       transform="scale(0.015625)" /><path
       id="DejaVuSerif-69-6"
       d="M 622 4353  Q 622 4497 726 4603  Q 831 4709 978 4709  Q 1122 4709 1226 4603  Q 1331 4497 1331 4353  Q 1331 4206 1228 4103  Q 1125 4000 978 4000  Q 831 4000 726 4103  Q 622 4206 622 4353  z M 1356 331  L 1900 331  L 1900 0  L 231 0  L 231 331  L 781 331  L 781 2988  L 231 2988  L 231 3322  L 1356 3322  L 1356 331  z "
       transform="scale(0.015625)" /><path
       id="DejaVuSerif-6c-6"
       d="M 1313 331  L 1856 331  L 1856 0  L 184 0  L 184 331  L 738 331  L 738 4531  L 184 4531  L 184 4863  L 1313 4863  L 1313 331  z "
       transform="scale(0.015625)" /><path
       id="DejaVuSerif-79-4"
       d="M 1381 -609  L 1600 -56  L 359 2988  L -19 2988  L -19 3322  L 1509 3322  L 1509 2988  L 978 2988  L 1913 703  L 2847 2988  L 2350 2988  L 2350 3322  L 3597 3322  L 3597 2988  L 3225 2988  L 1703 -750  Q 1547 -1138 1356 -1280  Q 1166 -1422 819 -1422  Q 672 -1422 517 -1397  Q 363 -1372 206 -1325  L 206 -691  L 500 -691  Q 519 -903 608 -995  Q 697 -1088 884 -1088  Q 1056 -1088 1161 -992  Q 1266 -897 1381 -609  z "
       transform="scale(0.015625)" /><path
       id="DejaVuSerif-72-9"
       d="M 3059 3328  L 3059 2497  L 2728 2497  Q 2713 2744 2591 2866  Q 2469 2988 2234 2988  Q 1809 2988 1582 2694  Q 1356 2400 1356 1850  L 1356 331  L 2022 331  L 2022 0  L 263 0  L 263 331  L 781 331  L 781 2994  L 231 2994  L 231 3322  L 1356 3322  L 1356 2731  Q 1525 3078 1790 3245  Q 2056 3413 2438 3413  Q 2578 3413 2733 3391  Q 2888 3369 3059 3328  z "
       transform="scale(0.015625)" /><path
       id="DejaVuSerif-3a-5"
       d="M 666 325  Q 666 500 786 622  Q 906 744 1081 744  Q 1256 744 1376 622  Q 1497 500 1497 325  Q 1497 150 1378 29  Q 1259 -91 1081 -91  Q 903 -91 784 29  Q 666 150 666 325  z M 666 2363  Q 666 2538 786 2658  Q 906 2778 1081 2778  Q 1259 2778 1378 2659  Q 1497 2541 1497 2363  Q 1497 2184 1378 2065  Q 1259 1947 1081 1947  Q 906 1947 786 2067  Q 666 2188 666 2363  z "
       transform="scale(0.015625)" /><path
       id="DejaVuSerif-48-0"
       d="M 353 0  L 353 331  L 947 331  L 947 4331  L 353 4331  L 353 4666  L 2175 4666  L 2175 4331  L 1581 4331  L 1581 2719  L 4000 2719  L 4000 4331  L 3406 4331  L 3406 4666  L 5228 4666  L 5228 4331  L 4634 4331  L 4634 331  L 5228 331  L 5228 0  L 3406 0  L 3406 331  L 4000 331  L 4000 2338  L 1581 2338  L 1581 331  L 2175 331  L 2175 0  L 353 0  z "
       transform="scale(0.015625)" /><clipPath
       id="p0bec6c97a5"><rect
         x="65.8625"
         y="12.919575"
         width="558"
         height="388.08"
         id="rect1058" /></clipPath><rect
       x="-228.36887"
       y="20.516214"
       width="535.43927"
       height="139.9137"
       id="rect1087" /><rect
       x="-228.36887"
       y="20.516214"
       width="535.43927"
       height="139.9137"
       id="rect1804" /></defs><g
     id="figure_1"><g
       id="patch_1"><path
         d="M 0 456.6925  L 637.425 456.6925  L 637.425 0  L 0 0  L 0 456.6925  z "
         style="fill: none"
         id="path8" /></g><g
       id="axes_1"><g
         id="patch_2"><path
           d="M 65.8625 395.28  L 623.8625 395.28  L 623.8625 7.2  L 65.8625 7.2  L 65.8625 395.28  z "
           style="fill: none"
           id="path11" /></g><g
         id="matplotlib.axis_1"><g
           id="xtick_1"><g
             id="line2d_1"><defs
               id="defs15"><path
                 id="mf642bf0141"
                 d="M 0 0  L 0 8  "
                 style="stroke: #000000; stroke-width: 2" /></defs><g
               id="g19"><use
                 xlink:href="#mf642bf0141"
                 x="65.8625"
                 y="395.28"
                 style="stroke: #000000; stroke-width: 2"
                 id="use17" /></g></g><g
             id="text_1"><!-- −15 --><g
               transform="translate(44.757812 421.976875) scale(0.2 -0.2)"
               id="g33"><defs
                 id="defs25"><path
                   id="DejaVuSerif-2212"
                   d="M 678 2259  L 4684 2259  L 4684 1753  L 678 1753  L 678 2259  z "
                   transform="scale(0.015625)" /><path
                   id="DejaVuSerif-31"
                   d="M 909 0  L 909 331  L 1722 331  L 1722 4213  L 781 3603  L 781 4013  L 1919 4750  L 2350 4750  L 2350 331  L 3163 331  L 3163 0  L 909 0  z "
                   transform="scale(0.015625)" /><path
                   id="DejaVuSerif-35"
                   d="M 3219 4666  L 3219 4153  L 1081 4153  L 1081 2816  Q 1244 2928 1461 2984  Q 1678 3041 1947 3041  Q 2703 3041 3140 2622  Q 3578 2203 3578 1478  Q 3578 738 3136 323  Q 2694 -91 1894 -91  Q 1572 -91 1234 -12  Q 897 66 544 225  L 544 1131  L 897 1131  Q 925 688 1179 453  Q 1434 219 1894 219  Q 2388 219 2653 544  Q 2919 869 2919 1478  Q 2919 2084 2655 2407  Q 2391 2731 1894 2731  Q 1613 2731 1398 2631  Q 1184 2531 1019 2322  L 750 2322  L 750 4666  L 3219 4666  z "
                   transform="scale(0.015625)" /></defs><use
                 xlink:href="#DejaVuSerif-2212"
                 id="use27" /><use
                 xlink:href="#DejaVuSerif-31"
                 x="83.789062"
                 id="use29" /><use
                 xlink:href="#DejaVuSerif-35"
                 x="147.412109"
                 id="use31" /></g></g></g><g
           id="xtick_2"><g
             id="line2d_2"><g
               id="g39"><use
                 xlink:href="#mf642bf0141"
                 x="205.3625"
                 y="395.28"
                 style="stroke: #000000; stroke-width: 2"
                 id="use37" /></g></g><g
             id="text_2"><!-- −10 --><g
               transform="translate(184.257812 421.976875) scale(0.2 -0.2)"
               id="g51"><defs
                 id="defs43"><path
                   id="DejaVuSerif-30"
                   d="M 2034 219  Q 2513 219 2750 744  Q 2988 1269 2988 2328  Q 2988 3391 2750 3916  Q 2513 4441 2034 4441  Q 1556 4441 1318 3916  Q 1081 3391 1081 2328  Q 1081 1269 1318 744  Q 1556 219 2034 219  z M 2034 -91  Q 1275 -91 848 546  Q 422 1184 422 2328  Q 422 3475 848 4112  Q 1275 4750 2034 4750  Q 2797 4750 3222 4112  Q 3647 3475 3647 2328  Q 3647 1184 3222 546  Q 2797 -91 2034 -91  z "
                   transform="scale(0.015625)" /></defs><use
                 xlink:href="#DejaVuSerif-2212"
                 id="use45" /><use
                 xlink:href="#DejaVuSerif-31"
                 x="83.789062"
                 id="use47" /><use
                 xlink:href="#DejaVuSerif-30"
                 x="147.412109"
                 id="use49" /></g></g></g><g
           id="xtick_3"><g
             id="line2d_3"><g
               id="g57"><use
                 xlink:href="#mf642bf0141"
                 x="344.8625"
                 y="395.28"
                 style="stroke: #000000; stroke-width: 2"
                 id="use55" /></g></g><g
             id="text_3"><!-- −5 --><g
               transform="translate(330.120313 421.976875) scale(0.2 -0.2)"
               id="g64"><use
                 xlink:href="#DejaVuSerif-2212"
                 id="use60" /><use
                 xlink:href="#DejaVuSerif-35"
                 x="83.789062"
                 id="use62" /></g></g></g><g
           id="xtick_4"><g
             id="line2d_4"><g
               id="g70"><use
                 xlink:href="#mf642bf0141"
                 x="484.3625"
                 y="395.28"
                 style="stroke: #000000; stroke-width: 2"
                 id="use68" /></g></g><g
             id="text_4"><!-- 0 --><g
               transform="translate(478 421.976875) scale(0.2 -0.2)"
               id="g75"><use
                 xlink:href="#DejaVuSerif-30"
                 id="use73" /></g></g></g><g
           id="xtick_5"><g
             id="line2d_5"><g
               id="g81"><use
                 xlink:href="#mf642bf0141"
                 x="623.8625"
                 y="395.28"
                 style="stroke: #000000; stroke-width: 2"
                 id="use79" /></g></g><g
             id="text_5"><!-- 5 --><g
               transform="translate(617.5 421.976875) scale(0.2 -0.2)"
               id="g86"><use
                 xlink:href="#DejaVuSerif-35"
                 id="use84" /></g></g></g><g
           id="xtick_6"><g
             id="line2d_6"><defs
               id="defs91"><path
                 id="m9f1e7bc73a"
                 d="M 0 0  L 0 4  "
                 style="stroke: #000000; stroke-width: 2" /></defs><g
               id="g95"><use
                 xlink:href="#m9f1e7bc73a"
                 x="135.6125"
                 y="395.28"
                 style="stroke: #000000; stroke-width: 2"
                 id="use93" /></g></g></g><g
           id="xtick_7"><g
             id="line2d_7"><g
               id="g101"><use
                 xlink:href="#m9f1e7bc73a"
                 x="275.1125"
                 y="395.28"
                 style="stroke: #000000; stroke-width: 2"
                 id="use99" /></g></g></g><g
           id="xtick_8"><g
             id="line2d_8"><g
               id="g107"><use
                 xlink:href="#m9f1e7bc73a"
                 x="414.6125"
                 y="395.28"
                 style="stroke: #000000; stroke-width: 2"
                 id="use105" /></g></g></g><g
           id="xtick_9"><g
             id="line2d_9"><g
               id="g113"><use
                 xlink:href="#m9f1e7bc73a"
                 x="554.1125"
                 y="395.28"
                 style="stroke: #000000; stroke-width: 2"
                 id="use111" /></g></g></g><g
           id="text_6"><!-- E - E$\mathrm{_F}$ (eV) --><g
             transform="translate(291.9625 445.333125) scale(0.2 -0.2)"
             id="g149"><defs
               id="defs125"><path
                 id="DejaVuSerif-45"
                 d="M 353 0  L 353 331  L 947 331  L 947 4331  L 353 4331  L 353 4666  L 4109 4666  L 4109 3628  L 3725 3628  L 3725 4281  L 1581 4281  L 1581 2719  L 3109 2719  L 3109 3303  L 3494 3303  L 3494 1753  L 3109 1753  L 3109 2338  L 1581 2338  L 1581 384  L 3775 384  L 3775 1038  L 4159 1038  L 4159 0  L 353 0  z "
                 transform="scale(0.015625)" /><path
                 id="DejaVuSerif-20"
                 transform="scale(0.015625)" /><path
                 id="DejaVuSerif-2d"
                 d="M 281 1959  L 1881 1959  L 1881 1472  L 281 1472  L 281 1959  z "
                 transform="scale(0.015625)" /><path
                 id="DejaVuSans-46"
                 d="M 628 4666  L 3309 4666  L 3309 4134  L 1259 4134  L 1259 2759  L 3109 2759  L 3109 2228  L 1259 2228  L 1259 0  L 628 0  L 628 4666  z "
                 transform="scale(0.015625)" /><path
                 id="DejaVuSerif-28"
                 d="M 2041 -997  Q 1281 -656 893 83  Q 506 822 506 1931  Q 506 3044 893 3783  Q 1281 4522 2041 4863  L 2041 4556  Q 1559 4225 1350 3623  Q 1141 3022 1141 1931  Q 1141 844 1350 242  Q 1559 -359 2041 -691  L 2041 -997  z "
                 transform="scale(0.015625)" /><path
                 id="DejaVuSerif-65"
                 d="M 3469 1600  L 991 1600  L 991 1575  Q 991 903 1244 561  Q 1497 219 1991 219  Q 2369 219 2611 417  Q 2853 616 2950 1006  L 3413 1006  Q 3275 459 2904 184  Q 2534 -91 1931 -91  Q 1203 -91 761 389  Q 319 869 319 1663  Q 319 2450 753 2931  Q 1188 3413 1894 3413  Q 2647 3413 3050 2948  Q 3453 2484 3469 1600  z M 2791 1931  Q 2772 2513 2545 2808  Q 2319 3103 1894 3103  Q 1497 3103 1269 2806  Q 1041 2509 991 1931  L 2791 1931  z "
                 transform="scale(0.015625)" /><path
                 id="DejaVuSerif-56"
                 d="M 1119 4331  L 2497 750  L 3872 4331  L 3347 4331  L 3347 4666  L 4716 4666  L 4716 4331  L 4263 4331  L 2597 0  L 2059 0  L 403 4331  L -63 4331  L -63 4666  L 1638 4666  L 1638 4331  L 1119 4331  z "
                 transform="scale(0.015625)" /><path
                 id="DejaVuSerif-29"
                 d="M 453 -997  L 453 -691  Q 934 -359 1145 242  Q 1356 844 1356 1931  Q 1356 3022 1145 3623  Q 934 4225 453 4556  L 453 4863  Q 1216 4522 1603 3783  Q 1991 3044 1991 1931  Q 1991 822 1603 83  Q 1216 -656 453 -997  z "
                 transform="scale(0.015625)" /></defs><use
               xlink:href="#DejaVuSerif-45"
               transform="translate(0 0.015625)"
               id="use127" /><use
               xlink:href="#DejaVuSerif-20"
               transform="translate(72.998047 0.015625)"
               id="use129" /><use
               xlink:href="#DejaVuSerif-2d"
               transform="translate(104.785156 0.015625)"
               id="use131" /><use
               xlink:href="#DejaVuSerif-20"
               transform="translate(138.574219 0.015625)"
               id="use133" /><use
               xlink:href="#DejaVuSerif-45"
               transform="translate(170.361328 0.015625)"
               id="use135" /><use
               xlink:href="#DejaVuSans-46"
               transform="translate(244.316406 -16.390625) scale(0.7)"
               id="use137" /><use
               xlink:href="#DejaVuSerif-20"
               transform="translate(287.314453 0.015625)"
               id="use139" /><use
               xlink:href="#DejaVuSerif-28"
               transform="translate(319.101562 0.015625)"
               id="use141" /><use
               xlink:href="#DejaVuSerif-65"
               transform="translate(358.115234 0.015625)"
               id="use143" /><use
               xlink:href="#DejaVuSerif-56"
               transform="translate(417.294922 0.015625)"
               id="use145" /><use
               xlink:href="#DejaVuSerif-29"
               transform="translate(489.511719 0.015625)"
               id="use147" /></g></g></g><g
         id="matplotlib.axis_2"><g
           id="ytick_1"><g
             id="line2d_10"><path
               d="M 65.8625 371.450526  L 623.8625 371.450526  "
               clip-path="url(#pf408d1cd90)"
               style="fill: none; stroke: #808080; stroke-width: 0.5; stroke-linecap: square"
               id="path153" /></g><g
             id="line2d_11" /><g
             id="text_7"><!-- 0.0 --><g
               transform="translate(30.55625 379.048964) scale(0.2 -0.2)"
               id="g166"><defs
                 id="defs158"><path
                   id="DejaVuSerif-2e"
                   d="M 603 325  Q 603 500 722 622  Q 841 744 1019 744  Q 1191 744 1312 622  Q 1434 500 1434 325  Q 1434 153 1312 31  Q 1191 -91 1019 -91  Q 841 -91 722 29  Q 603 150 603 325  z "
                   transform="scale(0.015625)" /></defs><use
                 xlink:href="#DejaVuSerif-30"
                 id="use160" /><use
                 xlink:href="#DejaVuSerif-2e"
                 x="63.623047"
                 id="use162" /><use
                 xlink:href="#DejaVuSerif-30"
                 x="95.410156"
                 id="use164" /></g></g></g><g
           id="ytick_2"><g
             id="line2d_12"><path
               d="M 65.8625 321.720934  L 623.8625 321.720934  "
               clip-path="url(#pf408d1cd90)"
               style="fill: none; stroke: #808080; stroke-width: 0.5; stroke-linecap: square"
               id="path170" /></g><g
             id="line2d_13" /><g
             id="text_8"><!-- 0.5 --><g
               transform="translate(30.55625 329.319371) scale(0.2 -0.2)"
               id="g180"><use
                 xlink:href="#DejaVuSerif-30"
                 id="use174" /><use
                 xlink:href="#DejaVuSerif-2e"
                 x="63.623047"
                 id="use176" /><use
                 xlink:href="#DejaVuSerif-35"
                 x="95.410156"
                 id="use178" /></g></g></g><g
           id="ytick_3"><g
             id="line2d_14"><path
               d="M 65.8625 271.991341  L 623.8625 271.991341  "
               clip-path="url(#pf408d1cd90)"
               style="fill: none; stroke: #808080; stroke-width: 0.5; stroke-linecap: square"
               id="path184" /></g><g
             id="line2d_15" /><g
             id="text_9"><!-- 1.0 --><g
               transform="translate(30.55625 279.589778) scale(0.2 -0.2)"
               id="g194"><use
                 xlink:href="#DejaVuSerif-31"
                 id="use188" /><use
                 xlink:href="#DejaVuSerif-2e"
                 x="63.623047"
                 id="use190" /><use
                 xlink:href="#DejaVuSerif-30"
                 x="95.410156"
                 id="use192" /></g></g></g><g
           id="ytick_4"><g
             id="line2d_16"><path
               d="M 65.8625 222.261748  L 623.8625 222.261748  "
               clip-path="url(#pf408d1cd90)"
               style="fill: none; stroke: #808080; stroke-width: 0.5; stroke-linecap: square"
               id="path198" /></g><g
             id="line2d_17" /><g
             id="text_10"><!-- 1.5 --><g
               transform="translate(30.55625 229.860185) scale(0.2 -0.2)"
               id="g208"><use
                 xlink:href="#DejaVuSerif-31"
                 id="use202" /><use
                 xlink:href="#DejaVuSerif-2e"
                 x="63.623047"
                 id="use204" /><use
                 xlink:href="#DejaVuSerif-35"
                 x="95.410156"
                 id="use206" /></g></g></g><g
           id="ytick_5"><g
             id="line2d_18"><path
               d="M 65.8625 172.532155  L 623.8625 172.532155  "
               clip-path="url(#pf408d1cd90)"
               style="fill: none; stroke: #808080; stroke-width: 0.5; stroke-linecap: square"
               id="path212" /></g><g
             id="line2d_19" /><g
             id="text_11"><!-- 2.0 --><g
               transform="translate(30.55625 180.130593) scale(0.2 -0.2)"
               id="g225"><defs
                 id="defs217"><path
                   id="DejaVuSerif-32"
                   d="M 819 3553  L 469 3553  L 469 4384  Q 803 4563 1142 4656  Q 1481 4750 1806 4750  Q 2534 4750 2956 4397  Q 3378 4044 3378 3438  Q 3378 2753 2422 1800  Q 2347 1728 2309 1691  L 1131 513  L 3078 513  L 3078 1088  L 3444 1088  L 3444 0  L 434 0  L 434 341  L 1850 1753  Q 2319 2222 2519 2614  Q 2719 3006 2719 3438  Q 2719 3909 2473 4175  Q 2228 4441 1797 4441  Q 1350 4441 1106 4219  Q 863 3997 819 3553  z "
                   transform="scale(0.015625)" /></defs><use
                 xlink:href="#DejaVuSerif-32"
                 id="use219" /><use
                 xlink:href="#DejaVuSerif-2e"
                 x="63.623047"
                 id="use221" /><use
                 xlink:href="#DejaVuSerif-30"
                 x="95.410156"
                 id="use223" /></g></g></g><g
           id="ytick_6"><g
             id="line2d_20"><path
               d="M 65.8625 122.802562  L 623.8625 122.802562  "
               clip-path="url(#pf408d1cd90)"
               style="fill: none; stroke: #808080; stroke-width: 0.5; stroke-linecap: square"
               id="path229" /></g><g
             id="line2d_21" /><g
             id="text_12"><!-- 2.5 --><g
               transform="translate(30.55625 130.401) scale(0.2 -0.2)"
               id="g239"><use
                 xlink:href="#DejaVuSerif-32"
                 id="use233" /><use
                 xlink:href="#DejaVuSerif-2e"
                 x="63.623047"
                 id="use235" /><use
                 xlink:href="#DejaVuSerif-35"
                 x="95.410156"
                 id="use237" /></g></g></g><g
           id="ytick_7"><g
             id="line2d_22"><path
               d="M 65.8625 73.07297  L 623.8625 73.07297  "
               clip-path="url(#pf408d1cd90)"
               style="fill: none; stroke: #808080; stroke-width: 0.5; stroke-linecap: square"
               id="path243" /></g><g
             id="line2d_23" /><g
             id="text_13"><!-- 3.0 --><g
               transform="translate(30.55625 80.671407) scale(0.2 -0.2)"
               id="g256"><defs
                 id="defs248"><path
                   id="DejaVuSerif-33"
                   d="M 622 4469  Q 988 4606 1323 4678  Q 1659 4750 1953 4750  Q 2638 4750 3022 4454  Q 3406 4159 3406 3634  Q 3406 3213 3140 2930  Q 2875 2647 2388 2547  Q 2963 2466 3280 2130  Q 3597 1794 3597 1259  Q 3597 606 3158 257  Q 2719 -91 1894 -91  Q 1528 -91 1179 -12  Q 831 66 488 225  L 488 1131  L 838 1131  Q 869 681 1141 450  Q 1413 219 1906 219  Q 2384 219 2661 495  Q 2938 772 2938 1253  Q 2938 1803 2653 2086  Q 2369 2369 1819 2369  L 1522 2369  L 1522 2688  L 1678 2688  Q 2225 2688 2498 2914  Q 2772 3141 2772 3597  Q 2772 4006 2547 4223  Q 2322 4441 1900 4441  Q 1478 4441 1245 4241  Q 1013 4041 972 3647  L 622 3647  L 622 4469  z "
                   transform="scale(0.015625)" /></defs><use
                 xlink:href="#DejaVuSerif-33"
                 id="use250" /><use
                 xlink:href="#DejaVuSerif-2e"
                 x="63.623047"
                 id="use252" /><use
                 xlink:href="#DejaVuSerif-30"
                 x="95.410156"
                 id="use254" /></g></g></g><g
           id="ytick_8"><g
             id="line2d_24"><path
               d="M 65.8625 23.343377  L 623.8625 23.343377  "
               clip-path="url(#pf408d1cd90)"
               style="fill: none; stroke: #808080; stroke-width: 0.5; stroke-linecap: square"
               id="path260" /></g><g
             id="line2d_25" /><g
             id="text_14"><!-- 3.5 --><g
               transform="translate(30.55625 30.941814) scale(0.2 -0.2)"
               id="g270"><use
                 xlink:href="#DejaVuSerif-33"
                 id="use264" /><use
                 xlink:href="#DejaVuSerif-2e"
                 x="63.623047"
                 id="use266" /><use
                 xlink:href="#DejaVuSerif-35"
                 x="95.410156"
                 id="use268" /></g></g></g><g
           id="text_15"><!-- PDOS (a.u.) --><g
             transform="translate(22.396875 260.774375) rotate(-90) scale(0.2 -0.2)"
             id="g304"><defs
               id="defs280"><path
                 id="DejaVuSerif-50"
                 d="M 1581 2375  L 2406 2375  Q 2872 2375 3115 2626  Q 3359 2878 3359 3353  Q 3359 3831 3115 4081  Q 2872 4331 2406 4331  L 1581 4331  L 1581 2375  z M 353 0  L 353 331  L 947 331  L 947 4331  L 353 4331  L 353 4666  L 2559 4666  Q 3259 4666 3668 4311  Q 4078 3956 4078 3353  Q 4078 2753 3668 2397  Q 3259 2041 2559 2041  L 1581 2041  L 1581 331  L 2303 331  L 2303 0  L 353 0  z "
                 transform="scale(0.015625)" /><path
                 id="DejaVuSerif-44"
                 d="M 1581 331  L 2163 331  Q 3072 331 3558 850  Q 4044 1369 4044 2338  Q 4044 3306 3559 3818  Q 3075 4331 2163 4331  L 1581 4331  L 1581 331  z M 353 0  L 353 331  L 947 331  L 947 4331  L 353 4331  L 353 4666  L 2209 4666  Q 3416 4666 4089 4050  Q 4763 3434 4763 2338  Q 4763 1238 4088 619  Q 3413 0 2209 0  L 353 0  z "
                 transform="scale(0.015625)" /><path
                 id="DejaVuSerif-4f"
                 d="M 2625 244  Q 3391 244 3781 770  Q 4172 1297 4172 2328  Q 4172 3363 3781 3889  Q 3391 4416 2625 4416  Q 1856 4416 1465 3889  Q 1075 3363 1075 2328  Q 1075 1297 1465 770  Q 1856 244 2625 244  z M 2625 -91  Q 2150 -91 1751 65  Q 1353 222 1050 525  Q 700 875 529 1319  Q 359 1763 359 2328  Q 359 2894 529 3339  Q 700 3784 1050 4134  Q 1356 4441 1750 4595  Q 2144 4750 2625 4750  Q 3641 4750 4266 4084  Q 4891 3419 4891 2328  Q 4891 1769 4719 1320  Q 4547 872 4197 525  Q 3891 219 3497 64  Q 3103 -91 2625 -91  z "
                 transform="scale(0.015625)" /><path
                 id="DejaVuSerif-53"
                 d="M 594 225  L 594 1288  L 953 1284  Q 969 753 1261 498  Q 1553 244 2150 244  Q 2706 244 2998 464  Q 3291 684 3291 1106  Q 3291 1444 3114 1625  Q 2938 1806 2369 1978  L 1753 2163  Q 1084 2366 811 2669  Q 538 2972 538 3500  Q 538 4094 959 4422  Q 1381 4750 2144 4750  Q 2469 4750 2856 4679  Q 3244 4609 3681 4475  L 3681 3481  L 3328 3481  Q 3275 3975 2998 4195  Q 2722 4416 2156 4416  Q 1663 4416 1405 4214  Q 1147 4013 1147 3628  Q 1147 3294 1340 3103  Q 1534 2913 2163 2725  L 2741 2553  Q 3375 2363 3645 2067  Q 3916 1772 3916 1275  Q 3916 597 3481 253  Q 3047 -91 2188 -91  Q 1803 -91 1404 -12  Q 1006 66 594 225  z "
                 transform="scale(0.015625)" /><path
                 id="DejaVuSerif-61"
                 d="M 2547 1044  L 2547 1747  L 1806 1747  Q 1378 1747 1168 1562  Q 959 1378 959 997  Q 959 650 1171 447  Q 1384 244 1747 244  Q 2106 244 2326 466  Q 2547 688 2547 1044  z M 3122 2075  L 3122 331  L 3634 331  L 3634 0  L 2547 0  L 2547 359  Q 2356 128 2106 18  Q 1856 -91 1522 -91  Q 969 -91 644 203  Q 319 497 319 997  Q 319 1513 691 1797  Q 1063 2081 1741 2081  L 2547 2081  L 2547 2309  Q 2547 2688 2317 2895  Q 2088 3103 1672 3103  Q 1328 3103 1125 2947  Q 922 2791 872 2484  L 575 2484  L 575 3156  Q 875 3284 1158 3348  Q 1441 3413 1709 3413  Q 2400 3413 2761 3070  Q 3122 2728 3122 2075  z "
                 transform="scale(0.015625)" /><path
                 id="DejaVuSerif-75"
                 d="M 2266 3322  L 3341 3322  L 3341 331  L 3884 331  L 3884 0  L 2766 0  L 2766 588  Q 2606 256 2353 82  Q 2100 -91 1766 -91  Q 1213 -91 952 223  Q 691 538 691 1209  L 691 2988  L 172 2988  L 172 3322  L 1269 3322  L 1269 1388  Q 1269 781 1417 556  Q 1566 331 1947 331  Q 2347 331 2556 625  Q 2766 919 2766 1478  L 2766 2988  L 2266 2988  L 2266 3322  z "
                 transform="scale(0.015625)" /></defs><use
               xlink:href="#DejaVuSerif-50"
               id="use282" /><use
               xlink:href="#DejaVuSerif-44"
               x="67.285156"
               id="use284" /><use
               xlink:href="#DejaVuSerif-4f"
               x="147.460938"
               id="use286" /><use
               xlink:href="#DejaVuSerif-53"
               x="229.443359"
               id="use288" /><use
               xlink:href="#DejaVuSerif-20"
               x="297.949219"
               id="use290" /><use
               xlink:href="#DejaVuSerif-28"
               x="329.736328"
               id="use292" /><use
               xlink:href="#DejaVuSerif-61"
               x="368.75"
               id="use294" /><use
               xlink:href="#DejaVuSerif-2e"
               x="428.369141"
               id="use296" /><use
               xlink:href="#DejaVuSerif-75"
               x="460.15625"
               id="use298" /><use
               xlink:href="#DejaVuSerif-2e"
               x="524.560547"
               id="use300" /><use
               xlink:href="#DejaVuSerif-29"
               x="556.347656"
               id="use302" /></g></g></g><g
         id="line2d_26"><path
           d="M -1 371.450526  L 229.818199 371.416682  L 232.719799 371.185264  L 235.621399 369.705481  L 238.550899 366.369293  L 241.452499 368.27994  L 244.354099 370.848163  L 247.283599 371.366393  L 253.086799 371.440009  L 258.917899 371.317753  L 261.819499 370.402113  L 264.748999 364.065507  L 267.650599 342.359695  L 270.552199 340.756397  L 273.481699 362.997758  L 276.383299 370.191413  L 279.284899 371.271334  L 285.115999 371.377589  L 288.017599 371.180346  L 290.947099 369.404627  L 293.848699 358.29299  L 296.750299 331.272897  L 299.679799 333.178873  L 302.581399 331.627268  L 305.482999 328.255895  L 308.412499 327.990073  L 311.314099 290.043529  L 314.215699 316.784298  L 317.145199 313.328677  L 320.046799 215.355302  L 322.948399 146.373206  L 325.877899 218.219558  L 328.779499 267.733193  L 331.681099 257.599323  L 334.610599 291.510433  L 337.512199 307.926304  L 340.413799 209.446674  L 343.343299 159.268906  L 346.244899 213.372591  L 349.146499 216.580601  L 352.075999 223.531407  L 354.977599 224.336466  L 357.879199 223.066603  L 360.808699 219.218057  L 363.710299 181.994699  L 366.611899 134.627961  L 369.541399 133.962768  L 372.442999 71.380522  L 375.344599 79.8945  L 378.274099 135.117538  L 381.175699 121.066025  L 384.077299 153.069111  L 386.978899 264.705923  L 389.908399 195.413917  L 392.809999 111.755608  L 395.711599 163.41646  L 398.641099 197.765283  L 401.542699 171.557058  L 404.444299 178.491525  L 407.373799 210.215843  L 410.275399 140.516773  L 413.176999 102.958337  L 416.106499 170.174362  L 419.008099 278.307294  L 421.909699 202.855759  L 424.839199 95.531325  L 427.740799 31.029474  L 430.642399 60.350799  L 433.571899 105.6509  L 436.473499 198.302442  L 439.375099 201.346458  L 442.304599 240.367825  L 445.206199 291.580475  L 448.107799 328.912462  L 451.037299 324.738046  L 453.938899 283.827558  L 456.840499 326.653734  L 459.769999 362.305098  L 462.671599 370.175137  L 465.573199 371.403346  L 471.404299 371.430166  L 474.305899 371.289796  L 477.235399 370.185173  L 480.136999 362.98907  L 483.038599 342.90394  L 485.968099 336.729294  L 488.869699 343.162788  L 491.771299 318.142544  L 494.700799 323.138312  L 497.602399 349.434632  L 500.503999 362.104948  L 503.433499 368.344372  L 506.335099 370.563011  L 509.236699 371.332166  L 512.166199 371.411565  L 515.067799 371.278314  L 517.969399 370.723643  L 520.898899 370.390517  L 523.800499 370.849156  L 526.702099 370.619273  L 529.631599 365.915387  L 532.533199 340.365332  L 535.434799 296.283172  L 538.336399 286.012491  L 541.265899 330.685626  L 544.167499 363.437898  L 547.069099 368.512314  L 549.998599 361.592756  L 552.900199 337.919414  L 558.731299 306.82891  L 561.632899 307.15993  L 564.534499 326.641349  L 567.463999 359.351032  L 570.365599 369.543708  L 573.267199 370.83296  L 576.196699 370.972711  L 579.098299 371.268581  L 581.999899 371.396039  L 584.929399 371.27086  L 587.830999 370.051521  L 590.732599 361.894026  L 593.662099 333.425547  L 596.563699 302.924929  L 599.465299 312.94535  L 602.394799 330.900735  L 605.296399 357.339646  L 608.197999 369.034605  L 611.127499 370.699373  L 614.029099 368.834019  L 616.930699 360.140383  L 619.860199 343.20244  L 622.761799 344.279973  L 625.663399 350.261684  L 628.592899 351.440817  L 631.494499 353.013531  L 634.396099 361.466203  L 637.325599 367.201526  L 638.425 367.872458  L 638.425 367.872458  "
           clip-path="url(#pf408d1cd90)"
           style="fill: none; stroke-dasharray: 11.1,4.8; stroke-dashoffset: 0; stroke: #808080; stroke-opacity: 0.7; stroke-width: 3"
           id="path308" /></g><g
         id="line2d_27"><path
           d="M -1 371.450526  L 180.323599 371.381749  L 183.253099 370.910318  L 186.154699 367.393296  L 189.056299 349.632193  L 191.985799 318.11335  L 194.887399 318.477494  L 197.788999 345.768528  L 200.718499 348.274112  L 203.620099 327.688559  L 206.521699 319.064278  L 209.451199 345.181288  L 212.352799 366.078791  L 215.254399 370.821609  L 218.183899 371.450526  L 241.452499 371.431403  L 244.354099 371.312129  L 247.283599 370.51853  L 250.185199 368.48281  L 253.086799 369.378502  L 256.016299 371.024188  L 258.917899 371.304299  L 261.819499 370.740078  L 264.748999 366.80843  L 267.650599 356.769658  L 270.552199 358.100385  L 273.481699 367.400464  L 276.383299 369.477705  L 279.284899 365.324252  L 282.214399 364.559443  L 285.115999 369.495096  L 288.017599 370.199676  L 290.947099 367.105562  L 293.848699 366.10998  L 296.750299 367.557216  L 299.679799 367.690816  L 302.581399 369.701635  L 305.482999 368.931018  L 308.412499 366.16271  L 311.314099 367.314378  L 314.215699 367.276544  L 317.145199 365.857314  L 320.046799 367.530225  L 325.877899 368.983669  L 328.779499 370.221845  L 334.610599 370.403416  L 337.512199 371.068713  L 340.413799 371.037537  L 346.244899 370.613074  L 349.146499 369.134804  L 352.075999 365.583664  L 354.977599 362.44209  L 357.879199 363.716578  L 360.808699 366.960441  L 363.710299 369.211559  L 366.611899 370.339448  L 369.541399 370.777139  L 372.442999 370.908651  L 375.344599 370.864651  L 378.274099 371.115649  L 398.641099 371.256045  L 401.542699 371.208485  L 410.275399 371.327256  L 413.176999 371.192558  L 421.909699 371.360329  L 427.740799 371.287553  L 436.473499 371.412872  L 442.304599 371.27314  L 448.107799 371.432122  L 465.573199 371.449764  L 483.038599 371.361117  L 491.771299 371.056475  L 500.503999 371.368356  L 506.335099 371.400689  L 512.166199 371.408715  L 515.067799 371.15837  L 517.969399 370.201809  L 520.898899 369.595834  L 523.800499 370.557516  L 526.702099 371.271947  L 529.631599 371.388263  L 535.434799 371.330462  L 538.336399 371.258358  L 544.167499 371.31394  L 549.998599 371.130818  L 552.900199 370.867937  L 555.801799 370.243931  L 558.731299 368.941011  L 561.632899 369.46399  L 564.534499 370.954623  L 567.463999 371.317576  L 570.365599 371.045376  L 573.267199 369.752787  L 576.196699 369.23396  L 579.098299 370.681219  L 581.999899 371.321245  L 584.929399 371.443044  L 590.732599 371.399394  L 596.563699 371.233193  L 602.394799 371.229866  L 605.296399 371.237636  L 608.197999 371.379948  L 614.029099 371.324609  L 625.663399 370.959331  L 631.494499 370.911102  L 637.325599 371.286016  L 638.425 371.305845  L 638.425 371.305845  "
           clip-path="url(#pf408d1cd90)"
           style="fill: none; stroke: #0000ff; stroke-width: 3; stroke-linecap: square"
           id="path311" /></g><g
         id="line2d_28"><path
           d="M -1 371.450526  L 177.421999 371.425467  L 180.323599 371.234306  L 183.253099 369.752099  L 186.154699 358.694024  L 189.056299 302.782478  L 191.985799 203.092413  L 194.887399 203.254907  L 197.788999 289.265931  L 200.718499 296.507667  L 203.620099 229.70842  L 206.521699 202.216977  L 209.451199 286.750223  L 212.352799 354.136889  L 215.254399 369.425499  L 218.183899 371.450526  L 238.550899 371.404493  L 241.452499 371.311619  L 244.354099 370.507024  L 247.283599 365.108168  L 250.185199 351.254619  L 253.086799 357.349055  L 256.016299 368.539556  L 258.917899 370.381729  L 261.819499 366.040764  L 264.748999 336.136913  L 267.650599 260.049193  L 270.552199 270.665135  L 273.481699 340.853358  L 276.383299 354.947392  L 279.284899 317.94451  L 282.214399 311.19579  L 285.115999 354.310472  L 288.017599 360.202815  L 290.947099 331.966601  L 293.848699 321.233911  L 296.750299 328.589088  L 299.679799 327.849397  L 302.581399 350.867522  L 305.482999 341.06388  L 308.412499 307.236195  L 311.314099 319.550195  L 314.215699 312.545036  L 317.145199 289.693211  L 320.046799 314.355235  L 322.948399 323.975963  L 325.877899 333.204947  L 328.779499 351.100974  L 331.681099 351.406372  L 334.610599 352.434156  L 337.512199 364.052542  L 340.413799 362.030465  L 343.343299 356.212484  L 346.244899 345.364661  L 349.146499 295.174201  L 352.075999 177.148789  L 354.977599 73.956768  L 357.879199 108.195609  L 360.808699 214.8224  L 363.710299 291.868119  L 366.611899 330.393665  L 369.541399 345.900557  L 372.442999 350.644625  L 375.344599 347.686737  L 378.274099 358.673429  L 381.175699 360.612521  L 384.077299 359.310239  L 386.978899 366.151423  L 389.908399 366.9194  L 392.809999 364.186218  L 395.711599 364.257521  L 398.641099 365.09672  L 401.542699 362.43422  L 404.444299 364.571109  L 407.373799 368.824127  L 410.275399 367.2829  L 413.176999 361.38953  L 416.106499 363.875831  L 419.008099 369.20049  L 421.909699 369.330363  L 424.839199 367.42144  L 427.740799 366.063361  L 430.642399 368.452763  L 433.571899 370.172211  L 436.473499 370.298432  L 439.375099 367.344744  L 442.304599 364.655056  L 445.206199 368.731412  L 448.107799 370.850985  L 451.037299 370.694999  L 453.938899 369.270926  L 456.840499 369.119421  L 459.769999 370.618074  L 462.671599 371.316749  L 468.502699 371.450489  L 477.235399 371.416756  L 480.136999 371.208651  L 483.038599 370.286555  L 485.968099 368.654153  L 488.869699 367.689063  L 491.771299 366.044107  L 494.700799 367.496836  L 497.602399 369.141391  L 500.503999 369.432849  L 503.433499 369.201592  L 506.335099 370.544835  L 509.236699 371.269526  L 512.166199 371.127451  L 515.067799 369.270991  L 517.969399 362.204742  L 520.898899 358.01098  L 523.800499 365.062371  L 526.702099 370.158428  L 529.631599 370.957422  L 532.533199 370.967348  L 535.434799 370.533399  L 538.336399 369.549429  L 541.265899 369.838725  L 544.167499 370.341868  L 549.998599 369.369956  L 552.900199 367.565812  L 555.801799 363.415036  L 558.731299 356.825874  L 561.632899 360.144217  L 564.534499 368.271494  L 567.463999 370.625408  L 570.365599 369.545623  L 573.267199 363.937207  L 576.196699 360.822619  L 579.098299 366.853887  L 581.999899 370.580354  L 584.929399 371.372407  L 587.830999 371.420538  L 590.732599 371.246189  L 593.662099 370.675363  L 596.563699 370.285234  L 599.465299 370.524813  L 602.394799 370.420768  L 605.296399 370.59066  L 608.197999 371.16318  L 611.127499 371.162014  L 614.029099 370.635696  L 616.930699 370.274767  L 619.860199 369.317514  L 622.761799 368.76628  L 625.663399 368.561461  L 628.592899 368.163703  L 631.494499 368.27598  L 634.396099 369.812694  L 637.325599 370.627253  L 638.425 370.714964  L 638.425 370.714964  "
           clip-path="url(#pf408d1cd90)"
           style="fill: none; stroke: #0000ff; stroke-opacity: 0.5; stroke-width: 3; stroke-linecap: square"
           id="path314" /></g><g
         id="patch_3"><path
           d="M 65.8625 395.28  L 623.8625 395.28  "
           style="fill: none; stroke: #000000; stroke-width: 2; stroke-linejoin: miter; stroke-linecap: square"
           id="path317" /></g><g
         id="legend_1"><g
           id="patch_4"><path
             d="M 79.8625 111.8375  L 271.946875 111.8375  Q 275.946875 111.8375 275.946875 107.8375  L 275.946875 21.2  Q 275.946875 17.2 271.946875 17.2  L 79.8625 17.2  Q 75.8625 17.2 75.8625 21.2  L 75.8625 107.8375  Q 75.8625 111.8375 79.8625 111.8375  z "
             style="fill: #ffffff; opacity: 0.8; stroke: #cccccc; stroke-linejoin: miter"
             id="path320" /></g><g
           id="line2d_29"><path
             d="M 83.8625 33.396875  L 103.8625 33.396875  L 123.8625 33.396875  "
             style="fill: none; stroke-dasharray: 11.1,4.8; stroke-dashoffset: 0; stroke: #808080; stroke-opacity: 0.7; stroke-width: 3"
             id="path323" /></g><g
           id="text_16"><!-- Au --><g
             transform="translate(139.8625 40.396875) scale(0.2 -0.2)"
             id="g333"><defs
               id="defs327"><path
                 id="DejaVuSerif-41"
                 d="M 1281 1691  L 2994 1691  L 2138 3909  L 1281 1691  z M -38 0  L -38 331  L 372 331  L 2034 4666  L 2559 4666  L 4225 331  L 4684 331  L 4684 0  L 2988 0  L 2988 331  L 3506 331  L 3116 1356  L 1153 1356  L 763 331  L 1275 331  L 1275 0  L -38 0  z "
                 transform="scale(0.015625)" /></defs><use
               xlink:href="#DejaVuSerif-41"
               id="use329" /><use
               xlink:href="#DejaVuSerif-75"
               x="72.216797"
               id="use331" /></g></g><g
           id="line2d_30"><path
             d="M 83.8625 62.753125  L 103.8625 62.753125  L 123.8625 62.753125  "
             style="fill: none; stroke: #0000ff; stroke-width: 3; stroke-linecap: square"
             id="path336" /></g><g
           id="text_17"><!-- Bilayer 1 : H --><g
             transform="translate(139.8625 69.753125) scale(0.2 -0.2)"
             id="g374"><defs
               id="defs346"><path
                 id="DejaVuSerif-42"
                 d="M 1581 331  L 2516 331  Q 3078 331 3337 575  Q 3597 819 3597 1350  Q 3597 1878 3339 2120  Q 3081 2363 2516 2363  L 1581 2363  L 1581 331  z M 1581 2694  L 2375 2694  Q 2888 2694 3123 2891  Q 3359 3088 3359 3513  Q 3359 3941 3123 4136  Q 2888 4331 2375 4331  L 1581 4331  L 1581 2694  z M 353 0  L 353 331  L 947 331  L 947 4331  L 353 4331  L 353 4666  L 2656 4666  Q 3363 4666 3720 4377  Q 4078 4088 4078 3513  Q 4078 3097 3829 2850  Q 3581 2603 3103 2547  Q 3697 2472 4005 2167  Q 4313 1863 4313 1350  Q 4313 656 3875 328  Q 3438 0 2509 0  L 353 0  z "
                 transform="scale(0.015625)" /><path
                 id="DejaVuSerif-69"
                 d="M 622 4353  Q 622 4497 726 4603  Q 831 4709 978 4709  Q 1122 4709 1226 4603  Q 1331 4497 1331 4353  Q 1331 4206 1228 4103  Q 1125 4000 978 4000  Q 831 4000 726 4103  Q 622 4206 622 4353  z M 1356 331  L 1900 331  L 1900 0  L 231 0  L 231 331  L 781 331  L 781 2988  L 231 2988  L 231 3322  L 1356 3322  L 1356 331  z "
                 transform="scale(0.015625)" /><path
                 id="DejaVuSerif-6c"
                 d="M 1313 331  L 1856 331  L 1856 0  L 184 0  L 184 331  L 738 331  L 738 4531  L 184 4531  L 184 4863  L 1313 4863  L 1313 331  z "
                 transform="scale(0.015625)" /><path
                 id="DejaVuSerif-79"
                 d="M 1381 -609  L 1600 -56  L 359 2988  L -19 2988  L -19 3322  L 1509 3322  L 1509 2988  L 978 2988  L 1913 703  L 2847 2988  L 2350 2988  L 2350 3322  L 3597 3322  L 3597 2988  L 3225 2988  L 1703 -750  Q 1547 -1138 1356 -1280  Q 1166 -1422 819 -1422  Q 672 -1422 517 -1397  Q 363 -1372 206 -1325  L 206 -691  L 500 -691  Q 519 -903 608 -995  Q 697 -1088 884 -1088  Q 1056 -1088 1161 -992  Q 1266 -897 1381 -609  z "
                 transform="scale(0.015625)" /><path
                 id="DejaVuSerif-72"
                 d="M 3059 3328  L 3059 2497  L 2728 2497  Q 2713 2744 2591 2866  Q 2469 2988 2234 2988  Q 1809 2988 1582 2694  Q 1356 2400 1356 1850  L 1356 331  L 2022 331  L 2022 0  L 263 0  L 263 331  L 781 331  L 781 2994  L 231 2994  L 231 3322  L 1356 3322  L 1356 2731  Q 1525 3078 1790 3245  Q 2056 3413 2438 3413  Q 2578 3413 2733 3391  Q 2888 3369 3059 3328  z "
                 transform="scale(0.015625)" /><path
                 id="DejaVuSerif-3a"
                 d="M 666 325  Q 666 500 786 622  Q 906 744 1081 744  Q 1256 744 1376 622  Q 1497 500 1497 325  Q 1497 150 1378 29  Q 1259 -91 1081 -91  Q 903 -91 784 29  Q 666 150 666 325  z M 666 2363  Q 666 2538 786 2658  Q 906 2778 1081 2778  Q 1259 2778 1378 2659  Q 1497 2541 1497 2363  Q 1497 2184 1378 2065  Q 1259 1947 1081 1947  Q 906 1947 786 2067  Q 666 2188 666 2363  z "
                 transform="scale(0.015625)" /><path
                 id="DejaVuSerif-48"
                 d="M 353 0  L 353 331  L 947 331  L 947 4331  L 353 4331  L 353 4666  L 2175 4666  L 2175 4331  L 1581 4331  L 1581 2719  L 4000 2719  L 4000 4331  L 3406 4331  L 3406 4666  L 5228 4666  L 5228 4331  L 4634 4331  L 4634 331  L 5228 331  L 5228 0  L 3406 0  L 3406 331  L 4000 331  L 4000 2338  L 1581 2338  L 1581 331  L 2175 331  L 2175 0  L 353 0  z "
                 transform="scale(0.015625)" /></defs><use
               xlink:href="#DejaVuSerif-42"
               id="use348" /><use
               xlink:href="#DejaVuSerif-69"
               x="73.486328"
               id="use350" /><use
               xlink:href="#DejaVuSerif-6c"
               x="105.46875"
               id="use352" /><use
               xlink:href="#DejaVuSerif-61"
               x="137.451172"
               id="use354" /><use
               xlink:href="#DejaVuSerif-79"
               x="197.070312"
               id="use356" /><use
               xlink:href="#DejaVuSerif-65"
               x="253.564453"
               id="use358" /><use
               xlink:href="#DejaVuSerif-72"
               x="312.744141"
               id="use360" /><use
               xlink:href="#DejaVuSerif-20"
               x="360.546875"
               id="use362" /><use
               xlink:href="#DejaVuSerif-31"
               x="392.333984"
               id="use364" /><use
               xlink:href="#DejaVuSerif-20"
               x="455.957031"
               id="use366" /><use
               xlink:href="#DejaVuSerif-3a"
               x="487.744141"
               id="use368" /><use
               xlink:href="#DejaVuSerif-20"
               x="521.435547"
               id="use370" /><use
               xlink:href="#DejaVuSerif-48"
               x="553.222656"
               id="use372" /></g></g><g
           id="line2d_31"><path
             d="M 83.8625 92.39375  L 103.8625 92.39375  L 123.8625 92.39375  "
             style="fill: none; stroke: #0000ff; stroke-opacity: 0.5; stroke-width: 3; stroke-linecap: square"
             id="path377" /></g><g
           id="text_18"><!-- Bilayer 1 : O --><g
             transform="translate(139.8625 99.39375) scale(0.2 -0.2)"
             id="g406"><use
               xlink:href="#DejaVuSerif-42"
               id="use380" /><use
               xlink:href="#DejaVuSerif-69"
               x="73.486328"
               id="use382" /><use
               xlink:href="#DejaVuSerif-6c"
               x="105.46875"
               id="use384" /><use
               xlink:href="#DejaVuSerif-61"
               x="137.451172"
               id="use386" /><use
               xlink:href="#DejaVuSerif-79"
               x="197.070312"
               id="use388" /><use
               xlink:href="#DejaVuSerif-65"
               x="253.564453"
               id="use390" /><use
               xlink:href="#DejaVuSerif-72"
               x="312.744141"
               id="use392" /><use
               xlink:href="#DejaVuSerif-20"
               x="360.546875"
               id="use394" /><use
               xlink:href="#DejaVuSerif-31"
               x="392.333984"
               id="use396" /><use
               xlink:href="#DejaVuSerif-20"
               x="455.957031"
               id="use398" /><use
               xlink:href="#DejaVuSerif-3a"
               x="487.744141"
               id="use400" /><use
               xlink:href="#DejaVuSerif-20"
               x="521.435547"
               id="use402" /><use
               xlink:href="#DejaVuSerif-4f"
               x="553.222656"
               id="use404" /></g></g></g></g></g><defs
     id="defs415"><clipPath
       id="pf408d1cd90"><rect
         x="65.8625"
         y="7.2"
         width="558"
         height="388.08"
         id="rect412" /></clipPath></defs><g
     id="figure_1-3"
     transform="translate(-657.49688,-5.71957)"><g
       id="patch_1-6"><path
         d="M 0,462.41208 H 637.425 V 0 H 0 Z"
         style="fill:none"
         id="path654" /></g><g
       id="axes_1-7"><g
         id="patch_2-5"><path
           d="m 65.8625,400.99957 h 558 V 12.919575 h -558 z"
           style="fill:none"
           id="path657" /></g><g
         id="matplotlib.axis_1-3"><g
           id="xtick_1-5"><g
             id="line2d_1-6"><defs
               id="defs661"><path
                 id="path1105"
                 d="M 0,0 V 8"
                 style="stroke:#000000;stroke-width:2" /></defs><g
               id="g665"><use
                 xlink:href="#m58049e87a6"
                 x="65.862503"
                 y="400.99957"
                 style="stroke:#000000;stroke-width:2"
                 id="use663" /></g></g><g
             id="text_1-2"><!-- −15 --><g
               transform="matrix(0.2,0,0,-0.2,44.757812,427.69645)"
               id="g679"><defs
                 id="defs671"><path
                   id="path1111"
                   d="M 678,2259 H 4684 V 1753 H 678 Z"
                   transform="scale(0.015625)" /><path
                   id="path1113"
                   d="m 909,0 v 331 h 813 V 4213 L 781,3603 v 410 l 1138,737 h 431 V 331 h 813 V 0 Z"
                   transform="scale(0.015625)" /><path
                   id="path1115"
                   d="M 3219,4666 V 4153 H 1081 V 2816 q 163,112 380,168 217,57 486,57 756,0 1193,-419 438,-419 438,-1144 0,-740 -442,-1155 -442,-414 -1242,-414 -322,0 -660,79 -337,78 -690,237 v 906 h 353 q 28,-443 282,-678 255,-234 715,-234 494,0 759,325 266,325 266,934 0,606 -264,929 -264,324 -761,324 -281,0 -496,-100 -214,-100 -379,-309 H 750 v 2344 z"
                   transform="scale(0.015625)" /></defs><use
                 xlink:href="#DejaVuSerif-2212-9"
                 id="use673" /><use
                 xlink:href="#DejaVuSerif-31-1"
                 x="83.789062"
                 id="use675" /><use
                 xlink:href="#DejaVuSerif-35-2"
                 x="147.41211"
                 id="use677" /></g></g></g><g
           id="xtick_2-7"><g
             id="line2d_2-0"><g
               id="g685"><use
                 xlink:href="#m58049e87a6"
                 x="205.3625"
                 y="400.99957"
                 style="stroke:#000000;stroke-width:2"
                 id="use683" /></g></g><g
             id="text_2-9"><!-- −10 --><g
               transform="matrix(0.2,0,0,-0.2,184.25781,427.69645)"
               id="g697"><defs
                 id="defs689"><path
                   id="path1127"
                   d="m 2034,219 q 479,0 716,525 238,525 238,1584 0,1063 -238,1588 -237,525 -716,525 -478,0 -716,-525 -237,-525 -237,-1588 0,-1059 237,-1584 238,-525 716,-525 z m 0,-310 q -759,0 -1186,637 -426,638 -426,1782 0,1147 426,1784 427,638 1186,638 763,0 1188,-638 425,-637 425,-1784 Q 3647,1184 3222,546 2797,-91 2034,-91 Z"
                   transform="scale(0.015625)" /></defs><use
                 xlink:href="#DejaVuSerif-2212-9"
                 id="use691" /><use
                 xlink:href="#DejaVuSerif-31-1"
                 x="83.789062"
                 id="use693" /><use
                 xlink:href="#DejaVuSerif-30-3"
                 x="147.41211"
                 id="use695" /></g></g></g><g
           id="xtick_3-6"><g
             id="line2d_3-0"><g
               id="g703"><use
                 xlink:href="#m58049e87a6"
                 x="344.86249"
                 y="400.99957"
                 style="stroke:#000000;stroke-width:2"
                 id="use701" /></g></g><g
             id="text_3-6"><!-- −5 --><g
               transform="matrix(0.2,0,0,-0.2,330.12031,427.69645)"
               id="g710"><use
                 xlink:href="#DejaVuSerif-2212-9"
                 id="use706" /><use
                 xlink:href="#DejaVuSerif-35-2"
                 x="83.789062"
                 id="use708" /></g></g></g><g
           id="xtick_4-2"><g
             id="line2d_4-6"><g
               id="g716"><use
                 xlink:href="#m58049e87a6"
                 x="484.36249"
                 y="400.99957"
                 style="stroke:#000000;stroke-width:2"
                 id="use714" /></g></g><g
             id="text_4-1"><!-- 0 --><g
               transform="matrix(0.2,0,0,-0.2,478,427.69645)"
               id="g721"><use
                 xlink:href="#DejaVuSerif-30-3"
                 id="use719" /></g></g></g><g
           id="xtick_5-8"><g
             id="line2d_5-7"><g
               id="g727"><use
                 xlink:href="#m58049e87a6"
                 x="623.86249"
                 y="400.99957"
                 style="stroke:#000000;stroke-width:2"
                 id="use725" /></g></g><g
             id="text_5-9"><!-- 5 --><g
               transform="matrix(0.2,0,0,-0.2,617.5,427.69645)"
               id="g732"><use
                 xlink:href="#DejaVuSerif-35-2"
                 id="use730" /></g></g></g><g
           id="xtick_6-2"><g
             id="line2d_6-0"><defs
               id="defs737"><path
                 id="path1158"
                 d="M 0,0 V 4"
                 style="stroke:#000000;stroke-width:2" /></defs><g
               id="g741"><use
                 xlink:href="#m0ceab068d5"
                 x="135.6125"
                 y="400.99957"
                 style="stroke:#000000;stroke-width:2"
                 id="use739" /></g></g></g><g
           id="xtick_7-2"><g
             id="line2d_7-3"><g
               id="g747"><use
                 xlink:href="#m0ceab068d5"
                 x="275.11249"
                 y="400.99957"
                 style="stroke:#000000;stroke-width:2"
                 id="use745" /></g></g></g><g
           id="xtick_8-7"><g
             id="line2d_8-5"><g
               id="g753"><use
                 xlink:href="#m0ceab068d5"
                 x="414.61249"
                 y="400.99957"
                 style="stroke:#000000;stroke-width:2"
                 id="use751" /></g></g></g><g
           id="xtick_9-9"><g
             id="line2d_9-2"><g
               id="g759"><use
                 xlink:href="#m0ceab068d5"
                 x="554.11249"
                 y="400.99957"
                 style="stroke:#000000;stroke-width:2"
                 id="use757" /></g></g></g><g
           id="text_6-2"><!-- E - E$\mathrm{_F}$ (eV) --><g
             transform="matrix(0.2,0,0,-0.2,291.9625,451.0527)"
             id="g795"><defs
               id="defs771"><path
                 id="path1177"
                 d="M 353,0 V 331 H 947 V 4331 H 353 v 335 H 4109 V 3628 h -384 v 653 H 1581 V 2719 h 1528 v 584 h 385 V 1753 h -385 v 585 H 1581 V 384 h 2194 v 654 h 384 V 0 Z"
                 transform="scale(0.015625)" /><path
                 id="path1179"
                 transform="scale(0.015625)"
                 d="" /><path
                 id="path1181"
                 d="M 281,1959 H 1881 V 1472 H 281 Z"
                 transform="scale(0.015625)" /><path
                 id="path1183"
                 d="M 628,4666 H 3309 V 4134 H 1259 V 2759 H 3109 V 2228 H 1259 V 0 H 628 Z"
                 transform="scale(0.015625)" /><path
                 id="path1185"
                 d="M 2041,-997 Q 1281,-656 893,83 506,822 506,1931 q 0,1113 387,1852 388,739 1148,1080 v -307 q -482,-331 -691,-933 -209,-601 -209,-1692 0,-1087 209,-1689 209,-601 691,-933 z"
                 transform="scale(0.015625)" /><path
                 id="path1187"
                 d="M 3469,1600 H 991 v -25 q 0,-672 253,-1014 253,-342 747,-342 378,0 620,198 242,199 339,589 h 463 Q 3275,459 2904,184 2534,-91 1931,-91 1203,-91 761,389 319,869 319,1663 q 0,787 434,1268 435,482 1141,482 753,0 1156,-465 403,-464 419,-1348 z m -678,331 q -19,582 -246,877 -226,295 -651,295 -397,0 -625,-297 -228,-297 -278,-875 z"
                 transform="scale(0.015625)" /><path
                 id="path1189"
                 d="M 1119,4331 2497,750 3872,4331 h -525 v 335 H 4716 V 4331 H 4263 L 2597,0 H 2059 L 403,4331 H -63 v 335 h 1701 v -335 z"
                 transform="scale(0.015625)" /><path
                 id="path1191"
                 d="m 453,-997 v 306 q 481,332 692,933 211,602 211,1689 0,1091 -211,1692 -211,602 -692,933 v 307 Q 1216,4522 1603,3783 1991,3044 1991,1931 1991,822 1603,83 1216,-656 453,-997 Z"
                 transform="scale(0.015625)" /></defs><use
               xlink:href="#DejaVuSerif-45-8"
               transform="translate(0,0.015625)"
               id="use773" /><use
               xlink:href="#DejaVuSerif-20-9"
               transform="translate(72.998047,0.015625)"
               id="use775" /><use
               xlink:href="#DejaVuSerif-2d-7"
               transform="translate(104.78516,0.015625)"
               id="use777" /><use
               xlink:href="#DejaVuSerif-20-9"
               transform="translate(138.57422,0.015625)"
               id="use779" /><use
               xlink:href="#DejaVuSerif-45-8"
               transform="translate(170.36133,0.015625)"
               id="use781" /><use
               xlink:href="#DejaVuSans-46-3"
               transform="matrix(0.7,0,0,0.7,244.31641,-16.390625)"
               id="use783" /><use
               xlink:href="#DejaVuSerif-20-9"
               transform="translate(287.31445,0.015625)"
               id="use785" /><use
               xlink:href="#DejaVuSerif-28-6"
               transform="translate(319.10156,0.015625)"
               id="use787" /><use
               xlink:href="#DejaVuSerif-65-1"
               transform="translate(358.11523,0.015625)"
               id="use789" /><use
               xlink:href="#DejaVuSerif-56-2"
               transform="translate(417.29492,0.015625)"
               id="use791" /><use
               xlink:href="#DejaVuSerif-29-9"
               transform="translate(489.51172,0.015625)"
               id="use793" /></g></g></g><g
         id="matplotlib.axis_2-3"><g
           id="ytick_1-1"><g
             id="line2d_10-9"><path
               d="m 65.8625,377.1701 h 558"
               clip-path="url(#p0bec6c97a5)"
               style="fill:none;stroke:#808080;stroke-width:0.5;stroke-linecap:square"
               id="path799" /></g><g
             id="line2d_11-4" /><g
             id="text_7-7"><!-- 0.0 --><g
               transform="matrix(0.2,0,0,-0.2,30.55625,384.76854)"
               id="g812"><defs
                 id="defs804"><path
                   id="path1211"
                   d="m 603,325 q 0,175 119,297 119,122 297,122 172,0 293,-122 Q 1434,500 1434,325 1434,153 1312,31 1191,-91 1019,-91 841,-91 722,29 603,150 603,325 Z"
                   transform="scale(0.015625)" /></defs><use
                 xlink:href="#DejaVuSerif-30-3"
                 id="use806" /><use
                 xlink:href="#DejaVuSerif-2e-8"
                 x="63.623047"
                 id="use808" /><use
                 xlink:href="#DejaVuSerif-30-3"
                 x="95.410156"
                 id="use810" /></g></g></g><g
           id="ytick_2-4"><g
             id="line2d_12-5"><path
               d="m 65.8625,325.40272 h 558"
               clip-path="url(#p0bec6c97a5)"
               style="fill:none;stroke:#808080;stroke-width:0.5;stroke-linecap:square"
               id="path816" /></g><g
             id="line2d_13-0" /><g
             id="text_8-3"><!-- 0.5 --><g
               transform="matrix(0.2,0,0,-0.2,30.55625,333.00116)"
               id="g826"><use
                 xlink:href="#DejaVuSerif-30-3"
                 id="use820" /><use
                 xlink:href="#DejaVuSerif-2e-8"
                 x="63.623047"
                 id="use822" /><use
                 xlink:href="#DejaVuSerif-35-2"
                 x="95.410156"
                 id="use824" /></g></g></g><g
           id="ytick_3-6"><g
             id="line2d_14-1"><path
               d="m 65.8625,273.63534 h 558"
               clip-path="url(#p0bec6c97a5)"
               style="fill:none;stroke:#808080;stroke-width:0.5;stroke-linecap:square"
               id="path830" /></g><g
             id="line2d_15-0" /><g
             id="text_9-6"><!-- 1.0 --><g
               transform="matrix(0.2,0,0,-0.2,30.55625,281.23378)"
               id="g840"><use
                 xlink:href="#DejaVuSerif-31-1"
                 id="use834" /><use
                 xlink:href="#DejaVuSerif-2e-8"
                 x="63.623047"
                 id="use836" /><use
                 xlink:href="#DejaVuSerif-30-3"
                 x="95.410156"
                 id="use838" /></g></g></g><g
           id="ytick_4-3"><g
             id="line2d_16-2"><path
               d="m 65.8625,221.86796 h 558"
               clip-path="url(#p0bec6c97a5)"
               style="fill:none;stroke:#808080;stroke-width:0.5;stroke-linecap:square"
               id="path844" /></g><g
             id="line2d_17-0" /><g
             id="text_10-6"><!-- 1.5 --><g
               transform="matrix(0.2,0,0,-0.2,30.55625,229.4664)"
               id="g854"><use
                 xlink:href="#DejaVuSerif-31-1"
                 id="use848" /><use
                 xlink:href="#DejaVuSerif-2e-8"
                 x="63.623047"
                 id="use850" /><use
                 xlink:href="#DejaVuSerif-35-2"
                 x="95.410156"
                 id="use852" /></g></g></g><g
           id="ytick_5-1"><g
             id="line2d_18-5"><path
               d="m 65.8625,170.10058 h 558"
               clip-path="url(#p0bec6c97a5)"
               style="fill:none;stroke:#808080;stroke-width:0.5;stroke-linecap:square"
               id="path858" /></g><g
             id="line2d_19-5" /><g
             id="text_11-4"><!-- 2.0 --><g
               transform="matrix(0.2,0,0,-0.2,30.55625,177.69902)"
               id="g871"><defs
                 id="defs863"><path
                   id="path1250"
                   d="M 819,3553 H 469 v 831 q 334,179 673,272 339,94 664,94 728,0 1150,-353 422,-353 422,-959 0,-685 -956,-1638 -75,-72 -113,-109 L 1131,513 h 1947 v 575 h 366 V 0 H 434 v 341 l 1416,1412 q 469,469 669,861 200,392 200,824 0,471 -246,737 -245,266 -676,266 -447,0 -691,-222 -243,-222 -287,-666 z"
                   transform="scale(0.015625)" /></defs><use
                 xlink:href="#DejaVuSerif-32-7"
                 id="use865" /><use
                 xlink:href="#DejaVuSerif-2e-8"
                 x="63.623047"
                 id="use867" /><use
                 xlink:href="#DejaVuSerif-30-3"
                 x="95.410156"
                 id="use869" /></g></g></g><g
           id="ytick_6-6"><g
             id="line2d_20-5"><path
               d="m 65.8625,118.3332 h 558"
               clip-path="url(#p0bec6c97a5)"
               style="fill:none;stroke:#808080;stroke-width:0.5;stroke-linecap:square"
               id="path875" /></g><g
             id="line2d_21-6" /><g
             id="text_12-9"><!-- 2.5 --><g
               transform="matrix(0.2,0,0,-0.2,30.55625,125.93164)"
               id="g885"><use
                 xlink:href="#DejaVuSerif-32-7"
                 id="use879" /><use
                 xlink:href="#DejaVuSerif-2e-8"
                 x="63.623047"
                 id="use881" /><use
                 xlink:href="#DejaVuSerif-35-2"
                 x="95.410156"
                 id="use883" /></g></g></g><g
           id="ytick_7-3"><g
             id="line2d_22-7"><path
               d="m 65.8625,66.565818 h 558"
               clip-path="url(#p0bec6c97a5)"
               style="fill:none;stroke:#808080;stroke-width:0.5;stroke-linecap:square"
               id="path889" /></g><g
             id="line2d_23-4" /><g
             id="text_13-5"><!-- 3.0 --><g
               transform="matrix(0.2,0,0,-0.2,30.55625,74.164255)"
               id="g902"><defs
                 id="defs894"><path
                   id="path1271"
                   d="m 622,4469 q 366,137 701,209 336,72 630,72 685,0 1069,-296 384,-295 384,-820 0,-421 -266,-704 -265,-283 -752,-383 575,-81 892,-417 317,-336 317,-871 0,-653 -439,-1002 -439,-348 -1264,-348 -366,0 -715,79 -348,78 -691,237 v 906 h 350 q 31,-450 303,-681 272,-231 765,-231 478,0 755,276 277,277 277,758 0,550 -285,833 -284,283 -834,283 h -297 v 319 h 156 q 547,0 820,226 274,227 274,683 0,409 -225,626 -225,218 -647,218 -422,0 -655,-200 -232,-200 -273,-594 H 622 Z"
                   transform="scale(0.015625)" /></defs><use
                 xlink:href="#DejaVuSerif-33-2"
                 id="use896" /><use
                 xlink:href="#DejaVuSerif-2e-8"
                 x="63.623047"
                 id="use898" /><use
                 xlink:href="#DejaVuSerif-30-3"
                 x="95.410156"
                 id="use900" /></g></g></g><g
           id="ytick_8-5"><g
             id="line2d_24-4"><path
               d="m 65.8625,14.798437 h 558"
               clip-path="url(#p0bec6c97a5)"
               style="fill:none;stroke:#808080;stroke-width:0.5;stroke-linecap:square"
               id="path906" /></g><g
             id="line2d_25-7" /><g
             id="text_14-4"><!-- 3.5 --><g
               transform="matrix(0.2,0,0,-0.2,30.55625,22.396875)"
               id="g916"><use
                 xlink:href="#DejaVuSerif-33-2"
                 id="use910" /><use
                 xlink:href="#DejaVuSerif-2e-8"
                 x="63.623047"
                 id="use912" /><use
                 xlink:href="#DejaVuSerif-35-2"
                 x="95.410156"
                 id="use914" /></g></g></g><g
           id="text_15-4"><!-- PDOS (a.u.) --><g
             transform="matrix(0,-0.2,-0.2,0,22.396875,266.49395)"
             id="g950"><defs
               id="defs926"><path
                 id="path1289"
                 d="m 1581,2375 h 825 q 466,0 709,251 244,252 244,727 0,478 -244,728 -243,250 -709,250 H 1581 Z M 353,0 V 331 H 947 V 4331 H 353 v 335 h 2206 q 700,0 1109,-355 410,-355 410,-958 0,-600 -410,-956 -409,-356 -1109,-356 H 1581 V 331 h 722 V 0 Z"
                 transform="scale(0.015625)" /><path
                 id="path1291"
                 d="m 1581,331 h 582 q 909,0 1395,519 486,519 486,1488 0,968 -485,1480 -484,513 -1396,513 H 1581 Z M 353,0 V 331 H 947 V 4331 H 353 v 335 h 1856 q 1207,0 1880,-616 674,-616 674,-1712 Q 4763,1238 4088,619 3413,0 2209,0 Z"
                 transform="scale(0.015625)" /><path
                 id="path1293"
                 d="m 2625,244 q 766,0 1156,526 391,527 391,1558 0,1035 -391,1561 -390,527 -1156,527 -769,0 -1160,-527 -390,-526 -390,-1561 0,-1031 390,-1558 391,-526 1160,-526 z m 0,-335 q -475,0 -874,156 -398,157 -701,460 -350,350 -521,794 -170,444 -170,1009 0,566 170,1011 171,445 521,795 306,307 700,461 394,155 875,155 1016,0 1641,-666 625,-665 625,-1756 0,-559 -172,-1008 Q 4547,872 4197,525 3891,219 3497,64 3103,-91 2625,-91 Z"
                 transform="scale(0.015625)" /><path
                 id="path1295"
                 d="m 594,225 v 1063 l 359,-4 q 16,-531 308,-786 292,-254 889,-254 556,0 848,220 293,220 293,642 0,338 -177,519 -176,181 -745,353 l -616,185 q -669,203 -942,506 -273,303 -273,831 0,594 421,922 422,328 1185,328 325,0 712,-71 388,-70 825,-204 v -994 h -353 q -53,494 -330,714 -276,221 -842,221 -493,0 -751,-202 -258,-201 -258,-586 0,-334 193,-525 194,-190 823,-378 l 578,-172 q 634,-190 904,-486 271,-295 271,-792 0,-678 -435,-1022 -434,-344 -1293,-344 -385,0 -784,79 -398,78 -810,237 z"
                 transform="scale(0.015625)" /><path
                 id="path1297"
                 d="m 2547,1044 v 703 h -741 q -428,0 -638,-185 -209,-184 -209,-565 0,-347 212,-550 213,-203 576,-203 359,0 579,222 221,222 221,578 z m 575,1031 V 331 h 512 V 0 H 2547 V 359 Q 2356,128 2106,18 1856,-91 1522,-91 969,-91 644,203 319,497 319,997 q 0,516 372,800 372,284 1050,284 h 806 v 228 q 0,379 -230,586 -229,208 -645,208 -344,0 -547,-156 Q 922,2791 872,2484 H 575 v 672 q 300,128 583,192 283,65 551,65 691,0 1052,-343 361,-342 361,-995 z"
                 transform="scale(0.015625)" /><path
                 id="path1299"
                 d="M 2266,3322 H 3341 V 331 h 543 V 0 H 2766 V 588 Q 2606,256 2353,82 2100,-91 1766,-91 1213,-91 952,223 691,538 691,1209 V 2988 H 172 v 334 H 1269 V 1388 q 0,-607 148,-832 149,-225 530,-225 400,0 609,294 210,294 210,853 v 1510 h -500 z"
                 transform="scale(0.015625)" /></defs><use
               xlink:href="#DejaVuSerif-50-3"
               id="use928" /><use
               xlink:href="#DejaVuSerif-44-0"
               x="67.285156"
               id="use930" /><use
               xlink:href="#DejaVuSerif-4f-7"
               x="147.46094"
               id="use932" /><use
               xlink:href="#DejaVuSerif-53-8"
               x="229.44336"
               id="use934" /><use
               xlink:href="#DejaVuSerif-20-9"
               x="297.94922"
               id="use936" /><use
               xlink:href="#DejaVuSerif-28-6"
               x="329.73633"
               id="use938" /><use
               xlink:href="#DejaVuSerif-61-6"
               x="368.75"
               id="use940" /><use
               xlink:href="#DejaVuSerif-2e-8"
               x="428.36914"
               id="use942" /><use
               xlink:href="#DejaVuSerif-75-8"
               x="460.15625"
               id="use944" /><use
               xlink:href="#DejaVuSerif-2e-8"
               x="524.56055"
               id="use946" /><use
               xlink:href="#DejaVuSerif-29-9"
               x="556.34766"
               id="use948" /></g></g></g><g
         id="line2d_26-8"><path
           d="m -1,377.1701 228.52045,-0.0162 2.9295,-0.11314 2.9295,-0.81456 2.9016,-3.11352 2.9295,-0.30877 2.9016,3.15605 2.9295,0.32754 2.9295,-1.9192 2.9016,-0.70789 2.9295,-1.14435 2.9295,-2.84696 2.9016,4.00179 2.9295,2.21869 2.9295,-3.92886 2.9016,-18.23058 2.9295,-6.24129 2.9016,17.76923 2.9295,8.9892 2.9295,2.47846 2.9016,0.34095 2.9295,0.0553 2.9295,-0.24099 2.9016,-1.95362 2.9295,-11.57328 2.9295,-26.78851 2.9016,-3.56887 2.9295,-5.79487 2.9295,10.23073 2.9016,-18.02999 2.9295,-24.79456 2.9016,38.02577 2.9295,-50.14777 2.9295,-127.12785 2.9016,9.14066 2.9295,100.83122 2.9295,0.56303 2.9016,-6.57839 2.9295,36.92303 2.9295,-17.80476 2.9016,-98.21523 2.9295,6.9573 2.9016,24.21571 2.9295,4.5197 2.9295,11.27986 2.9016,-18.60249 2.9295,30.63708 2.9295,-28.46942 2.9016,-64.26213 2.9295,-30.47212 2.9295,-8.11627 2.9016,-49.532364 2.9295,51.882404 2.9295,25.25365 2.9016,-5.41399 2.9295,71.40222 2.9016,29.65562 2.9295,-93.70511 2.9295,-23.31732 2.9016,70.21637 2.9295,35.03216 2.9295,-65.13838 2.9016,40.14608 2.9295,-19.59084 2.9295,-46.3074 2.9016,-10.13975 2.9295,114.86259 2.9016,4.22474 2.9295,-62.41367 2.9295,-108.216146 2.9016,-30.056766 2.9295,17.368856 2.9295,68.654586 2.9016,103.85934 2.9295,4.84243 2.9295,28.35961 2.9016,44.33707 2.9295,38.11395 2.9295,-38.81755 2.9016,-0.24318 2.9295,51.69463 2.9016,15.94484 2.9295,5.39472 2.9295,0.79193 2.9016,0.11459 2.9295,-0.0319 2.9295,-0.26269 2.9016,-2.06 2.9295,-12.84865 2.9295,-26.01025 2.9016,14.7886 2.9295,2.5305 2.9016,-39.55406 2.9295,8.12515 2.9295,38.81694 2.9016,13.61159 2.9295,2.65053 2.9295,0.23031 11.6622,0.0143 2.9295,-0.03 2.9016,-0.28761 2.9295,-2.18581 2.9295,-14.33535 2.9016,-40.69358 2.9295,-33.6836 2.9295,21.00847 2.9016,53.64532 2.9295,14.11265 2.9295,0.5129 2.9016,-11.28809 2.9295,-34.99281 2.9295,-32.46554 2.9016,2.45986 2.9295,23.74861 2.9016,37.18257 2.9295,14.87117 2.9295,2.11699 2.9016,0.30875 5.859,-0.0149 2.9016,-0.10948 2.9295,-0.86131 2.9295,-6.0728 2.9016,-24.97144 2.9295,-32.15949 2.9016,-2.57333 2.9295,17.42977 2.9295,31.46996 2.9016,14.88435 2.9295,1.64467 2.9295,-1.33338 2.9016,-3.3017 2.9295,-18.62986 2.9295,-10.92159 2.9016,20.57475 2.9295,-3.85051 2.9295,-29.69678 2.9016,-11.09202 2.9295,32.06917 2.16955,16.73218 v 0"
           clip-path="url(#p0bec6c97a5)"
           style="fill:none;stroke:#808080;stroke-width:3;stroke-dasharray:11.1, 4.8;stroke-dashoffset:0;stroke-opacity:0.7"
           id="path954" /></g><g
         id="line2d_27-4"><path
           d="m -1,377.1701 234.37945,-0.0701 2.9016,-0.24045 2.9295,-0.0794 2.9016,-0.2329 2.9295,-3.17645 2.9295,-10.58666 2.9016,-3.86116 2.9295,-10.61427 2.9295,-19.73856 2.9016,26.47716 2.9295,18.26938 2.9295,2.84385 2.9016,-1.93358 2.9295,-5.31624 2.9016,-15.84298 2.9295,-30.40347 2.9295,-0.12053 2.9016,33.92526 2.9295,17.19152 2.9295,3.10948 2.9016,0.28076 2.9295,-0.56621 2.9295,-0.95962 2.9016,0.56184 2.9295,0.70091 2.9295,0.17183 2.9016,-0.20579 5.8311,-2.23148 2.9295,0.0245 2.9295,-0.82853 2.9016,0.6727 2.9295,0.23172 5.8311,-5.90551 2.9295,0.87731 2.9295,2.35437 2.9016,0.58802 2.9295,-0.3324 2.9016,0.29429 2.9295,0.72787 2.9295,0.0109 5.8311,2.75143 2.9295,0.0111 5.8311,-1.18298 5.8311,-1.92965 2.9295,1.14689 2.9295,-0.0419 2.9016,-1.42163 2.9295,-0.73803 2.9016,0.0788 2.9295,0.76715 2.9295,-0.21248 2.9016,1.72287 2.9295,0.66056 2.9295,-0.47398 2.9016,1.14022 2.9295,0.392 2.9295,-1.34617 2.9016,-1.48212 2.9295,1.29745 2.9016,0.0801 2.9295,-0.17188 5.8311,-2.90225 2.9295,1.22175 2.9295,2.21537 2.9016,-0.17462 2.9295,-2.49991 2.9295,-0.91158 5.8311,5.15471 2.9295,0.40564 8.7327,0.23033 5.859,0.14103 11.6622,-0.0149 2.9295,-0.10632 2.9295,-0.23248 2.9016,0.10064 2.9295,-0.073 2.9016,-0.57189 2.9295,0.0999 2.9295,0.46716 2.9016,0.25789 5.859,0.0763 23.3523,-0.0193 2.9016,-0.0934 2.9295,-0.28543 2.9295,-0.007 2.9016,0.30345 5.859,0.077 2.9016,-0.15008 5.859,-0.86699 2.9016,0.28716 2.9295,0.48426 2.9016,0.20752 8.7606,0.0642 11.6901,-0.0231 2.9295,-0.13414 2.9016,-0.40217 2.9295,-0.0659 2.9016,0.28125 11.6901,0.3121 5.8311,-0.0649 2.9295,-0.22018 2.9295,-0.0993 2.9016,0.18063 2.9295,-0.28469 2.9295,-0.74434 2.9016,-0.22046 2.9295,0.76196 2.16955,0.4269 v 0"
           clip-path="url(#p0bec6c97a5)"
           style="fill:none;stroke:#0000ff;stroke-width:3;stroke-linecap:square"
           id="path957" /></g><g
         id="line2d_28-3"><path
           d="m -1,377.1701 231.44995,-0.0272 2.9295,-0.17154 2.9016,-0.68205 2.9295,-0.22568 2.9016,-0.66785 2.9295,-9.05908 2.9295,-30.28233 2.9016,-11.7503 2.9295,-33.4728 2.9295,-60.13108 2.9016,79.68071 2.9295,55.13403 2.9295,8.4892 2.9016,-6.33301 2.9295,-17.22128 2.9016,-51.06469 2.9295,-97.47999 2.9295,0.18765 2.9016,108.86714 2.9295,54.98643 2.9295,9.92157 2.9016,0.73159 2.9295,-2.6444 2.9295,-4.11942 2.9016,2.67455 2.9295,2.99048 2.9295,0.65398 2.9016,-1.43626 5.8311,-14.50826 2.9295,0.7194 2.9295,-5.03044 2.9016,3.94409 2.9295,0.40232 5.8311,-43.82171 2.9295,5.91428 2.9295,16.20795 2.9016,3.80389 2.9295,-3.61148 2.9016,1.12416 2.9295,5.52165 2.9295,0.14086 2.9016,10.93552 2.9295,10.20657 2.9295,-0.60111 2.9016,-5.97788 2.9295,-6.51299 2.9295,-11.66224 2.9016,-12.58317 2.9295,12.66222 2.9295,-0.96099 2.9016,-17.31464 2.9295,-12.62257 2.9016,-4.74202 2.9295,10.15715 2.9295,-2.73617 2.9016,24.71772 2.9295,8.92872 2.9295,-7.88259 2.9016,14.6161 2.9295,4.31511 2.9295,-21.93397 2.9016,-24.47666 2.9295,14.58634 2.9016,-8.1117 2.9295,-9.82894 2.9295,-47.52449 2.9016,-55.03199 2.9295,27.23 2.9295,66.07359 2.9016,-13.90192 2.9295,-105.40929 2.9295,-53.09667 2.9016,101.79238 2.9295,115.03705 2.9295,23.64154 2.9016,2.97444 2.9295,2.42298 2.9016,1.53181 2.9295,2.13841 2.9295,0.50955 5.8311,0.076 2.9295,-0.0263 2.9016,-0.20705 2.9295,-1.3073 2.9295,-2.79792 2.9016,1.25932 2.9295,-0.93302 2.9016,-7.02574 2.9295,1.2056 2.9295,5.84174 2.9016,3.09299 2.9295,0.79269 5.8311,0.1087 17.5212,-0.0211 2.9295,-0.1365 2.9016,-0.76492 2.9295,-2.43481 2.9295,-0.085 2.9016,2.56941 2.9295,0.7254 2.9295,-0.0573 2.9016,-1.18772 5.859,-7.38032 2.9016,2.10416 2.9295,4.49321 2.9016,1.70821 2.9295,0.42391 11.6901,0.0418 5.8311,-0.0969 2.9295,-0.57736 2.9016,-1.82964 2.9295,-0.52985 2.9016,1.29003 2.9295,0.50457 2.9295,0.80231 2.9016,0.33887 2.9295,-0.10504 2.9295,-0.25285 2.9016,-0.01 2.9295,-0.86963 2.9295,-0.53086 2.9016,0.63359 2.9295,-1.7052 2.9295,-4.412 2.9016,-2.17575 2.9295,4.36563 2.16955,3.02502 v 0"
           clip-path="url(#p0bec6c97a5)"
           style="fill:none;stroke:#0000ff;stroke-width:3;stroke-linecap:square;stroke-opacity:0.5"
           id="path960" /></g><g
         id="patch_3-1"><path
           d="m 65.8625,400.99957 h 558"
           style="fill:none;stroke:#000000;stroke-width:2;stroke-linecap:square;stroke-linejoin:miter"
           id="path963" /></g><g
         id="legend_1-4"><g
           id="patch_4-9"><path
             d="m 79.8625,117.55707 h 192.08437 q 4,0 4,-4 V 26.919575 q 0,-4 -4,-4 H 79.8625 q -4,0 -4,4 v 86.637495 q 0,4 4,4 z"
             style="opacity:0.8;fill:#ffffff;stroke:#cccccc;stroke-linejoin:miter"
             id="path966" /></g><g
           id="line2d_29-2"><path
             d="m 83.8625,39.11645 h 20 20"
             style="fill:none;stroke:#808080;stroke-width:3;stroke-dasharray:11.1, 4.8;stroke-dashoffset:0;stroke-opacity:0.7"
             id="path969" /></g><g
           id="text_16-0"><!-- Au --><g
             transform="matrix(0.2,0,0,-0.2,139.8625,46.11645)"
             id="g979"><defs
               id="defs973"><path
                 id="path1328"
                 d="M 1281,1691 H 2994 L 2138,3909 Z M -38,0 v 331 h 410 l 1662,4335 h 525 L 4225,331 h 459 V 0 H 2988 v 331 h 518 L 3116,1356 H 1153 L 763,331 h 512 V 0 Z"
                 transform="scale(0.015625)" /></defs><use
               xlink:href="#DejaVuSerif-41-6"
               id="use975" /><use
               xlink:href="#DejaVuSerif-75-8"
               x="72.216797"
               id="use977" /></g></g><g
           id="line2d_30-8"><path
             d="m 83.8625,68.4727 h 20 20"
             style="fill:none;stroke:#0000ff;stroke-width:3;stroke-linecap:square"
             id="path982" /></g><g
           id="text_17-9"><!-- Bilayer 1 : H --><g
             transform="matrix(0.2,0,0,-0.2,139.8625,75.4727)"
             id="g1020"><defs
               id="defs992"><path
                 id="path1337"
                 d="m 1581,331 h 935 q 562,0 821,244 260,244 260,775 0,528 -258,770 -258,243 -823,243 h -935 z m 0,2363 h 794 q 513,0 748,197 236,197 236,622 0,428 -236,623 -235,195 -748,195 H 1581 Z M 353,0 V 331 H 947 V 4331 H 353 v 335 h 2303 q 707,0 1064,-289 358,-289 358,-864 0,-416 -249,-663 -248,-247 -726,-303 594,-75 902,-380 308,-304 308,-817 Q 4313,656 3875,328 3438,0 2509,0 Z"
                 transform="scale(0.015625)" /><path
                 id="path1339"
                 d="m 622,4353 q 0,144 104,250 105,106 252,106 144,0 248,-106 105,-106 105,-250 0,-147 -103,-250 -103,-103 -250,-103 -147,0 -252,103 -104,103 -104,250 z M 1356,331 h 544 V 0 H 231 V 331 H 781 V 2988 H 231 v 334 h 1125 z"
                 transform="scale(0.015625)" /><path
                 id="path1341"
                 d="m 1313,331 h 543 V 0 H 184 V 331 H 738 V 4531 H 184 v 332 h 1129 z"
                 transform="scale(0.015625)" /><path
                 id="path1343"
                 d="M 1381,-609 1600,-56 359,2988 H -19 v 334 H 1509 V 2988 H 978 l 935,-2285 934,2285 h -497 v 334 H 3597 V 2988 H 3225 L 1703,-750 q -156,-388 -347,-530 -190,-142 -537,-142 -147,0 -302,25 -154,25 -311,72 v 634 h 294 q 19,-212 108,-304 89,-93 276,-93 172,0 277,96 105,95 220,383 z"
                 transform="scale(0.015625)" /><path
                 id="path1345"
                 d="m 3059,3328 v -831 h -331 q -15,247 -137,369 -122,122 -357,122 -425,0 -652,-294 -226,-294 -226,-844 V 331 h 666 V 0 H 263 V 331 H 781 V 2994 H 231 v 328 h 1125 v -591 q 169,347 434,514 266,168 648,168 140,0 295,-22 155,-22 326,-63 z"
                 transform="scale(0.015625)" /><path
                 id="path1347"
                 d="m 666,325 q 0,175 120,297 120,122 295,122 175,0 295,-122 Q 1497,500 1497,325 1497,150 1378,29 1259,-91 1081,-91 903,-91 784,29 666,150 666,325 Z m 0,2038 q 0,175 120,295 120,120 295,120 178,0 297,-119 119,-118 119,-296 0,-179 -119,-298 -119,-118 -297,-118 -175,0 -295,120 -120,121 -120,296 z"
                 transform="scale(0.015625)" /><path
                 id="path1349"
                 d="M 353,0 V 331 H 947 V 4331 H 353 v 335 H 2175 V 4331 H 1581 V 2719 h 2419 v 1612 h -594 v 335 H 5228 V 4331 H 4634 V 331 h 594 V 0 H 3406 v 331 h 594 V 2338 H 1581 V 331 h 594 V 0 Z"
                 transform="scale(0.015625)" /></defs><use
               xlink:href="#DejaVuSerif-42-2"
               id="use994" /><use
               xlink:href="#DejaVuSerif-69-6"
               x="73.486328"
               id="use996" /><use
               xlink:href="#DejaVuSerif-6c-6"
               x="105.46875"
               id="use998" /><use
               xlink:href="#DejaVuSerif-61-6"
               x="137.45117"
               id="use1000" /><use
               xlink:href="#DejaVuSerif-79-4"
               x="197.07031"
               id="use1002" /><use
               xlink:href="#DejaVuSerif-65-1"
               x="253.56445"
               id="use1004" /><use
               xlink:href="#DejaVuSerif-72-9"
               x="312.74414"
               id="use1006" /><use
               xlink:href="#DejaVuSerif-20-9"
               x="360.54688"
               id="use1008" /><use
               xlink:href="#DejaVuSerif-31-1"
               x="392.33398"
               id="use1010" /><use
               xlink:href="#DejaVuSerif-20-9"
               x="455.95703"
               id="use1012" /><use
               xlink:href="#DejaVuSerif-3a-5"
               x="487.74414"
               id="use1014" /><use
               xlink:href="#DejaVuSerif-20-9"
               x="521.43555"
               id="use1016" /><use
               xlink:href="#DejaVuSerif-48-0"
               x="553.22266"
               id="use1018" /></g></g><g
           id="line2d_31-4"><path
             d="m 83.8625,98.113325 h 20 20"
             style="fill:none;stroke:#0000ff;stroke-width:3;stroke-linecap:square;stroke-opacity:0.5"
             id="path1023" /></g><g
           id="text_18-8"><!-- Bilayer 1 : O --><g
             transform="matrix(0.2,0,0,-0.2,139.8625,105.11333)"
             id="g1052"><use
               xlink:href="#DejaVuSerif-42-2"
               id="use1026" /><use
               xlink:href="#DejaVuSerif-69-6"
               x="73.486328"
               id="use1028" /><use
               xlink:href="#DejaVuSerif-6c-6"
               x="105.46875"
               id="use1030" /><use
               xlink:href="#DejaVuSerif-61-6"
               x="137.45117"
               id="use1032" /><use
               xlink:href="#DejaVuSerif-79-4"
               x="197.07031"
               id="use1034" /><use
               xlink:href="#DejaVuSerif-65-1"
               x="253.56445"
               id="use1036" /><use
               xlink:href="#DejaVuSerif-72-9"
               x="312.74414"
               id="use1038" /><use
               xlink:href="#DejaVuSerif-20-9"
               x="360.54688"
               id="use1040" /><use
               xlink:href="#DejaVuSerif-31-1"
               x="392.33398"
               id="use1042" /><use
               xlink:href="#DejaVuSerif-20-9"
               x="455.95703"
               id="use1044" /><use
               xlink:href="#DejaVuSerif-3a-5"
               x="487.74414"
               id="use1046" /><use
               xlink:href="#DejaVuSerif-20-9"
               x="521.43555"
               id="use1048" /><use
               xlink:href="#DejaVuSerif-4f-7"
               x="553.22266"
               id="use1050" /></g></g></g></g></g><text
     xml:space="preserve"
     transform="matrix(1.0072356,0,0,1.0072356,-400.63051,-89.580607)"
     id="text1083"
     style="font-size:40px;line-height:1.25;font-family:'CMU Serif';-inkscape-font-specification:'CMU Serif, Normal';letter-spacing:0px;word-spacing:0px;white-space:pre;shape-inside:url(#rect1087);display:inline"><tspan
       x="-228.36914"
       y="57.507812"
       id="tspan1785">a.</tspan></text><text
     xml:space="preserve"
     transform="matrix(1.0072356,0,0,1.0072356,256.86637,-89.580607)"
     id="text1802"
     style="font-size:40px;line-height:1.25;font-family:'CMU Serif';-inkscape-font-specification:'CMU Serif, Normal';letter-spacing:0px;word-spacing:0px;white-space:pre;shape-inside:url(#rect1804);display:inline"><tspan
       x="-228.36914"
       y="57.507812"
       id="tspan1800">b.</tspan></text></svg>
