<?xml version="1.0" encoding="utf-8" standalone="no"?>
<!DOCTYPE svg PUBLIC "-//W3C//DTD SVG 1.1//EN"
  "http://www.w3.org/Graphics/SVG/1.1/DTD/svg11.dtd">
<svg xmlns:xlink="http://www.w3.org/1999/xlink" width="637.425pt" height="462.412075pt" viewBox="0 0 637.425 462.412075" xmlns="http://www.w3.org/2000/svg" version="1.1">
 <metadata>
  <rdf:RDF xmlns:dc="http://purl.org/dc/elements/1.1/" xmlns:cc="http://creativecommons.org/ns#" xmlns:rdf="http://www.w3.org/1999/02/22-rdf-syntax-ns#">
   <cc:Work>
    <dc:type rdf:resource="http://purl.org/dc/dcmitype/StillImage"/>
    <dc:date>2025-04-28T13:48:40.408985</dc:date>
    <dc:format>image/svg+xml</dc:format>
    <dc:creator>
     <cc:Agent>
      <dc:title>Matplotlib v3.6.3, https://matplotlib.org/</dc:title>
     </cc:Agent>
    </dc:creator>
   </cc:Work>
  </rdf:RDF>
 </metadata>
 <defs>
  <style type="text/css">*{stroke-linejoin: round; stroke-linecap: butt}</style>
 </defs>
 <g id="figure_1">
  <g id="patch_1">
   <path d="M 0 462.412075 
L 637.425 462.412075 
L 637.425 0 
L 0 0 
L 0 462.412075 
z
" style="fill: none"/>
  </g>
  <g id="axes_1">
   <g id="patch_2">
    <path d="M 65.8625 400.999575 
L 623.8625 400.999575 
L 623.8625 12.919575 
L 65.8625 12.919575 
L 65.8625 400.999575 
z
" style="fill: none"/>
   </g>
   <g id="matplotlib.axis_1">
    <g id="xtick_1">
     <g id="line2d_1">
      <defs>
       <path id="m58049e87a6" d="M 0 0 
L 0 8 
" style="stroke: #000000; stroke-width: 2"/>
      </defs>
      <g>
       <use xlink:href="#m58049e87a6" x="65.8625" y="400.999575" style="stroke: #000000; stroke-width: 2"/>
      </g>
     </g>
     <g id="text_1">
      <!-- −15 -->
      <g transform="translate(44.757812 427.69645) scale(0.2 -0.2)">
       <defs>
        <path id="DejaVuSerif-2212" d="M 678 2259 
L 4684 2259 
L 4684 1753 
L 678 1753 
L 678 2259 
z
" transform="scale(0.015625)"/>
        <path id="DejaVuSerif-31" d="M 909 0 
L 909 331 
L 1722 331 
L 1722 4213 
L 781 3603 
L 781 4013 
L 1919 4750 
L 2350 4750 
L 2350 331 
L 3163 331 
L 3163 0 
L 909 0 
z
" transform="scale(0.015625)"/>
        <path id="DejaVuSerif-35" d="M 3219 4666 
L 3219 4153 
L 1081 4153 
L 1081 2816 
Q 1244 2928 1461 2984 
Q 1678 3041 1947 3041 
Q 2703 3041 3140 2622 
Q 3578 2203 3578 1478 
Q 3578 738 3136 323 
Q 2694 -91 1894 -91 
Q 1572 -91 1234 -12 
Q 897 66 544 225 
L 544 1131 
L 897 1131 
Q 925 688 1179 453 
Q 1434 219 1894 219 
Q 2388 219 2653 544 
Q 2919 869 2919 1478 
Q 2919 2084 2655 2407 
Q 2391 2731 1894 2731 
Q 1613 2731 1398 2631 
Q 1184 2531 1019 2322 
L 750 2322 
L 750 4666 
L 3219 4666 
z
" transform="scale(0.015625)"/>
       </defs>
       <use xlink:href="#DejaVuSerif-2212"/>
       <use xlink:href="#DejaVuSerif-31" x="83.789062"/>
       <use xlink:href="#DejaVuSerif-35" x="147.412109"/>
      </g>
     </g>
    </g>
    <g id="xtick_2">
     <g id="line2d_2">
      <g>
       <use xlink:href="#m58049e87a6" x="205.3625" y="400.999575" style="stroke: #000000; stroke-width: 2"/>
      </g>
     </g>
     <g id="text_2">
      <!-- −10 -->
      <g transform="translate(184.257812 427.69645) scale(0.2 -0.2)">
       <defs>
        <path id="DejaVuSerif-30" d="M 2034 219 
Q 2513 219 2750 744 
Q 2988 1269 2988 2328 
Q 2988 3391 2750 3916 
Q 2513 4441 2034 4441 
Q 1556 4441 1318 3916 
Q 1081 3391 1081 2328 
Q 1081 1269 1318 744 
Q 1556 219 2034 219 
z
M 2034 -91 
Q 1275 -91 848 546 
Q 422 1184 422 2328 
Q 422 3475 848 4112 
Q 1275 4750 2034 4750 
Q 2797 4750 3222 4112 
Q 3647 3475 3647 2328 
Q 3647 1184 3222 546 
Q 2797 -91 2034 -91 
z
" transform="scale(0.015625)"/>
       </defs>
       <use xlink:href="#DejaVuSerif-2212"/>
       <use xlink:href="#DejaVuSerif-31" x="83.789062"/>
       <use xlink:href="#DejaVuSerif-30" x="147.412109"/>
      </g>
     </g>
    </g>
    <g id="xtick_3">
     <g id="line2d_3">
      <g>
       <use xlink:href="#m58049e87a6" x="344.8625" y="400.999575" style="stroke: #000000; stroke-width: 2"/>
      </g>
     </g>
     <g id="text_3">
      <!-- −5 -->
      <g transform="translate(330.120313 427.69645) scale(0.2 -0.2)">
       <use xlink:href="#DejaVuSerif-2212"/>
       <use xlink:href="#DejaVuSerif-35" x="83.789062"/>
      </g>
     </g>
    </g>
    <g id="xtick_4">
     <g id="line2d_4">
      <g>
       <use xlink:href="#m58049e87a6" x="484.3625" y="400.999575" style="stroke: #000000; stroke-width: 2"/>
      </g>
     </g>
     <g id="text_4">
      <!-- 0 -->
      <g transform="translate(478 427.69645) scale(0.2 -0.2)">
       <use xlink:href="#DejaVuSerif-30"/>
      </g>
     </g>
    </g>
    <g id="xtick_5">
     <g id="line2d_5">
      <g>
       <use xlink:href="#m58049e87a6" x="623.8625" y="400.999575" style="stroke: #000000; stroke-width: 2"/>
      </g>
     </g>
     <g id="text_5">
      <!-- 5 -->
      <g transform="translate(617.5 427.69645) scale(0.2 -0.2)">
       <use xlink:href="#DejaVuSerif-35"/>
      </g>
     </g>
    </g>
    <g id="xtick_6">
     <g id="line2d_6">
      <defs>
       <path id="m0ceab068d5" d="M 0 0 
L 0 4 
" style="stroke: #000000; stroke-width: 2"/>
      </defs>
      <g>
       <use xlink:href="#m0ceab068d5" x="135.6125" y="400.999575" style="stroke: #000000; stroke-width: 2"/>
      </g>
     </g>
    </g>
    <g id="xtick_7">
     <g id="line2d_7">
      <g>
       <use xlink:href="#m0ceab068d5" x="275.1125" y="400.999575" style="stroke: #000000; stroke-width: 2"/>
      </g>
     </g>
    </g>
    <g id="xtick_8">
     <g id="line2d_8">
      <g>
       <use xlink:href="#m0ceab068d5" x="414.6125" y="400.999575" style="stroke: #000000; stroke-width: 2"/>
      </g>
     </g>
    </g>
    <g id="xtick_9">
     <g id="line2d_9">
      <g>
       <use xlink:href="#m0ceab068d5" x="554.1125" y="400.999575" style="stroke: #000000; stroke-width: 2"/>
      </g>
     </g>
    </g>
    <g id="text_6">
     <!-- E - E$\mathrm{_F}$ (eV) -->
     <g transform="translate(291.9625 451.0527) scale(0.2 -0.2)">
      <defs>
       <path id="DejaVuSerif-45" d="M 353 0 
L 353 331 
L 947 331 
L 947 4331 
L 353 4331 
L 353 4666 
L 4109 4666 
L 4109 3628 
L 3725 3628 
L 3725 4281 
L 1581 4281 
L 1581 2719 
L 3109 2719 
L 3109 3303 
L 3494 3303 
L 3494 1753 
L 3109 1753 
L 3109 2338 
L 1581 2338 
L 1581 384 
L 3775 384 
L 3775 1038 
L 4159 1038 
L 4159 0 
L 353 0 
z
" transform="scale(0.015625)"/>
       <path id="DejaVuSerif-20" transform="scale(0.015625)"/>
       <path id="DejaVuSerif-2d" d="M 281 1959 
L 1881 1959 
L 1881 1472 
L 281 1472 
L 281 1959 
z
" transform="scale(0.015625)"/>
       <path id="DejaVuSans-46" d="M 628 4666 
L 3309 4666 
L 3309 4134 
L 1259 4134 
L 1259 2759 
L 3109 2759 
L 3109 2228 
L 1259 2228 
L 1259 0 
L 628 0 
L 628 4666 
z
" transform="scale(0.015625)"/>
       <path id="DejaVuSerif-28" d="M 2041 -997 
Q 1281 -656 893 83 
Q 506 822 506 1931 
Q 506 3044 893 3783 
Q 1281 4522 2041 4863 
L 2041 4556 
Q 1559 4225 1350 3623 
Q 1141 3022 1141 1931 
Q 1141 844 1350 242 
Q 1559 -359 2041 -691 
L 2041 -997 
z
" transform="scale(0.015625)"/>
       <path id="DejaVuSerif-65" d="M 3469 1600 
L 991 1600 
L 991 1575 
Q 991 903 1244 561 
Q 1497 219 1991 219 
Q 2369 219 2611 417 
Q 2853 616 2950 1006 
L 3413 1006 
Q 3275 459 2904 184 
Q 2534 -91 1931 -91 
Q 1203 -91 761 389 
Q 319 869 319 1663 
Q 319 2450 753 2931 
Q 1188 3413 1894 3413 
Q 2647 3413 3050 2948 
Q 3453 2484 3469 1600 
z
M 2791 1931 
Q 2772 2513 2545 2808 
Q 2319 3103 1894 3103 
Q 1497 3103 1269 2806 
Q 1041 2509 991 1931 
L 2791 1931 
z
" transform="scale(0.015625)"/>
       <path id="DejaVuSerif-56" d="M 1119 4331 
L 2497 750 
L 3872 4331 
L 3347 4331 
L 3347 4666 
L 4716 4666 
L 4716 4331 
L 4263 4331 
L 2597 0 
L 2059 0 
L 403 4331 
L -63 4331 
L -63 4666 
L 1638 4666 
L 1638 4331 
L 1119 4331 
z
" transform="scale(0.015625)"/>
       <path id="DejaVuSerif-29" d="M 453 -997 
L 453 -691 
Q 934 -359 1145 242 
Q 1356 844 1356 1931 
Q 1356 3022 1145 3623 
Q 934 4225 453 4556 
L 453 4863 
Q 1216 4522 1603 3783 
Q 1991 3044 1991 1931 
Q 1991 822 1603 83 
Q 1216 -656 453 -997 
z
" transform="scale(0.015625)"/>
      </defs>
      <use xlink:href="#DejaVuSerif-45" transform="translate(0 0.015625)"/>
      <use xlink:href="#DejaVuSerif-20" transform="translate(72.998047 0.015625)"/>
      <use xlink:href="#DejaVuSerif-2d" transform="translate(104.785156 0.015625)"/>
      <use xlink:href="#DejaVuSerif-20" transform="translate(138.574219 0.015625)"/>
      <use xlink:href="#DejaVuSerif-45" transform="translate(170.361328 0.015625)"/>
      <use xlink:href="#DejaVuSans-46" transform="translate(244.316406 -16.390625) scale(0.7)"/>
      <use xlink:href="#DejaVuSerif-20" transform="translate(287.314453 0.015625)"/>
      <use xlink:href="#DejaVuSerif-28" transform="translate(319.101562 0.015625)"/>
      <use xlink:href="#DejaVuSerif-65" transform="translate(358.115234 0.015625)"/>
      <use xlink:href="#DejaVuSerif-56" transform="translate(417.294922 0.015625)"/>
      <use xlink:href="#DejaVuSerif-29" transform="translate(489.511719 0.015625)"/>
     </g>
    </g>
   </g>
   <g id="matplotlib.axis_2">
    <g id="ytick_1">
     <g id="line2d_10">
      <path d="M 65.8625 377.170101 
L 623.8625 377.170101 
" clip-path="url(#p0bec6c97a5)" style="fill: none; stroke: #808080; stroke-width: 0.5; stroke-linecap: square"/>
     </g>
     <g id="line2d_11"/>
     <g id="text_7">
      <!-- 0.0 -->
      <g transform="translate(30.55625 384.768538) scale(0.2 -0.2)">
       <defs>
        <path id="DejaVuSerif-2e" d="M 603 325 
Q 603 500 722 622 
Q 841 744 1019 744 
Q 1191 744 1312 622 
Q 1434 500 1434 325 
Q 1434 153 1312 31 
Q 1191 -91 1019 -91 
Q 841 -91 722 29 
Q 603 150 603 325 
z
" transform="scale(0.015625)"/>
       </defs>
       <use xlink:href="#DejaVuSerif-30"/>
       <use xlink:href="#DejaVuSerif-2e" x="63.623047"/>
       <use xlink:href="#DejaVuSerif-30" x="95.410156"/>
      </g>
     </g>
    </g>
    <g id="ytick_2">
     <g id="line2d_12">
      <path d="M 65.8625 325.40272 
L 623.8625 325.40272 
" clip-path="url(#p0bec6c97a5)" style="fill: none; stroke: #808080; stroke-width: 0.5; stroke-linecap: square"/>
     </g>
     <g id="line2d_13"/>
     <g id="text_8">
      <!-- 0.5 -->
      <g transform="translate(30.55625 333.001158) scale(0.2 -0.2)">
       <use xlink:href="#DejaVuSerif-30"/>
       <use xlink:href="#DejaVuSerif-2e" x="63.623047"/>
       <use xlink:href="#DejaVuSerif-35" x="95.410156"/>
      </g>
     </g>
    </g>
    <g id="ytick_3">
     <g id="line2d_14">
      <path d="M 65.8625 273.63534 
L 623.8625 273.63534 
" clip-path="url(#p0bec6c97a5)" style="fill: none; stroke: #808080; stroke-width: 0.5; stroke-linecap: square"/>
     </g>
     <g id="line2d_15"/>
     <g id="text_9">
      <!-- 1.0 -->
      <g transform="translate(30.55625 281.233777) scale(0.2 -0.2)">
       <use xlink:href="#DejaVuSerif-31"/>
       <use xlink:href="#DejaVuSerif-2e" x="63.623047"/>
       <use xlink:href="#DejaVuSerif-30" x="95.410156"/>
      </g>
     </g>
    </g>
    <g id="ytick_4">
     <g id="line2d_16">
      <path d="M 65.8625 221.867959 
L 623.8625 221.867959 
" clip-path="url(#p0bec6c97a5)" style="fill: none; stroke: #808080; stroke-width: 0.5; stroke-linecap: square"/>
     </g>
     <g id="line2d_17"/>
     <g id="text_10">
      <!-- 1.5 -->
      <g transform="translate(30.55625 229.466397) scale(0.2 -0.2)">
       <use xlink:href="#DejaVuSerif-31"/>
       <use xlink:href="#DejaVuSerif-2e" x="63.623047"/>
       <use xlink:href="#DejaVuSerif-35" x="95.410156"/>
      </g>
     </g>
    </g>
    <g id="ytick_5">
     <g id="line2d_18">
      <path d="M 65.8625 170.100579 
L 623.8625 170.100579 
" clip-path="url(#p0bec6c97a5)" style="fill: none; stroke: #808080; stroke-width: 0.5; stroke-linecap: square"/>
     </g>
     <g id="line2d_19"/>
     <g id="text_11">
      <!-- 2.0 -->
      <g transform="translate(30.55625 177.699016) scale(0.2 -0.2)">
       <defs>
        <path id="DejaVuSerif-32" d="M 819 3553 
L 469 3553 
L 469 4384 
Q 803 4563 1142 4656 
Q 1481 4750 1806 4750 
Q 2534 4750 2956 4397 
Q 3378 4044 3378 3438 
Q 3378 2753 2422 1800 
Q 2347 1728 2309 1691 
L 1131 513 
L 3078 513 
L 3078 1088 
L 3444 1088 
L 3444 0 
L 434 0 
L 434 341 
L 1850 1753 
Q 2319 2222 2519 2614 
Q 2719 3006 2719 3438 
Q 2719 3909 2473 4175 
Q 2228 4441 1797 4441 
Q 1350 4441 1106 4219 
Q 863 3997 819 3553 
z
" transform="scale(0.015625)"/>
       </defs>
       <use xlink:href="#DejaVuSerif-32"/>
       <use xlink:href="#DejaVuSerif-2e" x="63.623047"/>
       <use xlink:href="#DejaVuSerif-30" x="95.410156"/>
      </g>
     </g>
    </g>
    <g id="ytick_6">
     <g id="line2d_20">
      <path d="M 65.8625 118.333198 
L 623.8625 118.333198 
" clip-path="url(#p0bec6c97a5)" style="fill: none; stroke: #808080; stroke-width: 0.5; stroke-linecap: square"/>
     </g>
     <g id="line2d_21"/>
     <g id="text_12">
      <!-- 2.5 -->
      <g transform="translate(30.55625 125.931636) scale(0.2 -0.2)">
       <use xlink:href="#DejaVuSerif-32"/>
       <use xlink:href="#DejaVuSerif-2e" x="63.623047"/>
       <use xlink:href="#DejaVuSerif-35" x="95.410156"/>
      </g>
     </g>
    </g>
    <g id="ytick_7">
     <g id="line2d_22">
      <path d="M 65.8625 66.565818 
L 623.8625 66.565818 
" clip-path="url(#p0bec6c97a5)" style="fill: none; stroke: #808080; stroke-width: 0.5; stroke-linecap: square"/>
     </g>
     <g id="line2d_23"/>
     <g id="text_13">
      <!-- 3.0 -->
      <g transform="translate(30.55625 74.164255) scale(0.2 -0.2)">
       <defs>
        <path id="DejaVuSerif-33" d="M 622 4469 
Q 988 4606 1323 4678 
Q 1659 4750 1953 4750 
Q 2638 4750 3022 4454 
Q 3406 4159 3406 3634 
Q 3406 3213 3140 2930 
Q 2875 2647 2388 2547 
Q 2963 2466 3280 2130 
Q 3597 1794 3597 1259 
Q 3597 606 3158 257 
Q 2719 -91 1894 -91 
Q 1528 -91 1179 -12 
Q 831 66 488 225 
L 488 1131 
L 838 1131 
Q 869 681 1141 450 
Q 1413 219 1906 219 
Q 2384 219 2661 495 
Q 2938 772 2938 1253 
Q 2938 1803 2653 2086 
Q 2369 2369 1819 2369 
L 1522 2369 
L 1522 2688 
L 1678 2688 
Q 2225 2688 2498 2914 
Q 2772 3141 2772 3597 
Q 2772 4006 2547 4223 
Q 2322 4441 1900 4441 
Q 1478 4441 1245 4241 
Q 1013 4041 972 3647 
L 622 3647 
L 622 4469 
z
" transform="scale(0.015625)"/>
       </defs>
       <use xlink:href="#DejaVuSerif-33"/>
       <use xlink:href="#DejaVuSerif-2e" x="63.623047"/>
       <use xlink:href="#DejaVuSerif-30" x="95.410156"/>
      </g>
     </g>
    </g>
    <g id="ytick_8">
     <g id="line2d_24">
      <path d="M 65.8625 14.798437 
L 623.8625 14.798437 
" clip-path="url(#p0bec6c97a5)" style="fill: none; stroke: #808080; stroke-width: 0.5; stroke-linecap: square"/>
     </g>
     <g id="line2d_25"/>
     <g id="text_14">
      <!-- 3.5 -->
      <g transform="translate(30.55625 22.396875) scale(0.2 -0.2)">
       <use xlink:href="#DejaVuSerif-33"/>
       <use xlink:href="#DejaVuSerif-2e" x="63.623047"/>
       <use xlink:href="#DejaVuSerif-35" x="95.410156"/>
      </g>
     </g>
    </g>
    <g id="text_15">
     <!-- PDOS (a.u.) -->
     <g transform="translate(22.396875 266.49395) rotate(-90) scale(0.2 -0.2)">
      <defs>
       <path id="DejaVuSerif-50" d="M 1581 2375 
L 2406 2375 
Q 2872 2375 3115 2626 
Q 3359 2878 3359 3353 
Q 3359 3831 3115 4081 
Q 2872 4331 2406 4331 
L 1581 4331 
L 1581 2375 
z
M 353 0 
L 353 331 
L 947 331 
L 947 4331 
L 353 4331 
L 353 4666 
L 2559 4666 
Q 3259 4666 3668 4311 
Q 4078 3956 4078 3353 
Q 4078 2753 3668 2397 
Q 3259 2041 2559 2041 
L 1581 2041 
L 1581 331 
L 2303 331 
L 2303 0 
L 353 0 
z
" transform="scale(0.015625)"/>
       <path id="DejaVuSerif-44" d="M 1581 331 
L 2163 331 
Q 3072 331 3558 850 
Q 4044 1369 4044 2338 
Q 4044 3306 3559 3818 
Q 3075 4331 2163 4331 
L 1581 4331 
L 1581 331 
z
M 353 0 
L 353 331 
L 947 331 
L 947 4331 
L 353 4331 
L 353 4666 
L 2209 4666 
Q 3416 4666 4089 4050 
Q 4763 3434 4763 2338 
Q 4763 1238 4088 619 
Q 3413 0 2209 0 
L 353 0 
z
" transform="scale(0.015625)"/>
       <path id="DejaVuSerif-4f" d="M 2625 244 
Q 3391 244 3781 770 
Q 4172 1297 4172 2328 
Q 4172 3363 3781 3889 
Q 3391 4416 2625 4416 
Q 1856 4416 1465 3889 
Q 1075 3363 1075 2328 
Q 1075 1297 1465 770 
Q 1856 244 2625 244 
z
M 2625 -91 
Q 2150 -91 1751 65 
Q 1353 222 1050 525 
Q 700 875 529 1319 
Q 359 1763 359 2328 
Q 359 2894 529 3339 
Q 700 3784 1050 4134 
Q 1356 4441 1750 4595 
Q 2144 4750 2625 4750 
Q 3641 4750 4266 4084 
Q 4891 3419 4891 2328 
Q 4891 1769 4719 1320 
Q 4547 872 4197 525 
Q 3891 219 3497 64 
Q 3103 -91 2625 -91 
z
" transform="scale(0.015625)"/>
       <path id="DejaVuSerif-53" d="M 594 225 
L 594 1288 
L 953 1284 
Q 969 753 1261 498 
Q 1553 244 2150 244 
Q 2706 244 2998 464 
Q 3291 684 3291 1106 
Q 3291 1444 3114 1625 
Q 2938 1806 2369 1978 
L 1753 2163 
Q 1084 2366 811 2669 
Q 538 2972 538 3500 
Q 538 4094 959 4422 
Q 1381 4750 2144 4750 
Q 2469 4750 2856 4679 
Q 3244 4609 3681 4475 
L 3681 3481 
L 3328 3481 
Q 3275 3975 2998 4195 
Q 2722 4416 2156 4416 
Q 1663 4416 1405 4214 
Q 1147 4013 1147 3628 
Q 1147 3294 1340 3103 
Q 1534 2913 2163 2725 
L 2741 2553 
Q 3375 2363 3645 2067 
Q 3916 1772 3916 1275 
Q 3916 597 3481 253 
Q 3047 -91 2188 -91 
Q 1803 -91 1404 -12 
Q 1006 66 594 225 
z
" transform="scale(0.015625)"/>
       <path id="DejaVuSerif-61" d="M 2547 1044 
L 2547 1747 
L 1806 1747 
Q 1378 1747 1168 1562 
Q 959 1378 959 997 
Q 959 650 1171 447 
Q 1384 244 1747 244 
Q 2106 244 2326 466 
Q 2547 688 2547 1044 
z
M 3122 2075 
L 3122 331 
L 3634 331 
L 3634 0 
L 2547 0 
L 2547 359 
Q 2356 128 2106 18 
Q 1856 -91 1522 -91 
Q 969 -91 644 203 
Q 319 497 319 997 
Q 319 1513 691 1797 
Q 1063 2081 1741 2081 
L 2547 2081 
L 2547 2309 
Q 2547 2688 2317 2895 
Q 2088 3103 1672 3103 
Q 1328 3103 1125 2947 
Q 922 2791 872 2484 
L 575 2484 
L 575 3156 
Q 875 3284 1158 3348 
Q 1441 3413 1709 3413 
Q 2400 3413 2761 3070 
Q 3122 2728 3122 2075 
z
" transform="scale(0.015625)"/>
       <path id="DejaVuSerif-75" d="M 2266 3322 
L 3341 3322 
L 3341 331 
L 3884 331 
L 3884 0 
L 2766 0 
L 2766 588 
Q 2606 256 2353 82 
Q 2100 -91 1766 -91 
Q 1213 -91 952 223 
Q 691 538 691 1209 
L 691 2988 
L 172 2988 
L 172 3322 
L 1269 3322 
L 1269 1388 
Q 1269 781 1417 556 
Q 1566 331 1947 331 
Q 2347 331 2556 625 
Q 2766 919 2766 1478 
L 2766 2988 
L 2266 2988 
L 2266 3322 
z
" transform="scale(0.015625)"/>
      </defs>
      <use xlink:href="#DejaVuSerif-50"/>
      <use xlink:href="#DejaVuSerif-44" x="67.285156"/>
      <use xlink:href="#DejaVuSerif-4f" x="147.460938"/>
      <use xlink:href="#DejaVuSerif-53" x="229.443359"/>
      <use xlink:href="#DejaVuSerif-20" x="297.949219"/>
      <use xlink:href="#DejaVuSerif-28" x="329.736328"/>
      <use xlink:href="#DejaVuSerif-61" x="368.75"/>
      <use xlink:href="#DejaVuSerif-2e" x="428.369141"/>
      <use xlink:href="#DejaVuSerif-75" x="460.15625"/>
      <use xlink:href="#DejaVuSerif-2e" x="524.560547"/>
      <use xlink:href="#DejaVuSerif-29" x="556.347656"/>
     </g>
    </g>
   </g>
   <g id="line2d_26">
    <path d="M -1 377.170101 
L 227.52045 377.153932 
L 230.44995 377.040785 
L 233.37945 376.226226 
L 236.28105 373.112715 
L 239.21055 372.80394 
L 242.11215 375.959985 
L 245.04165 376.287531 
L 247.97115 374.368326 
L 250.87275 373.660444 
L 253.80225 372.516091 
L 256.73175 369.669126 
L 259.63335 373.670924 
L 262.56285 375.889606 
L 265.49235 371.960748 
L 268.39395 353.730166 
L 271.32345 347.488878 
L 274.22505 365.258106 
L 277.15455 374.247309 
L 280.08405 376.725772 
L 282.98565 377.066716 
L 285.91515 377.121977 
L 288.84465 376.880988 
L 291.74625 374.927371 
L 294.67575 363.354093 
L 297.60525 336.565575 
L 300.50685 332.996707 
L 303.43635 327.201844 
L 306.36585 337.432572 
L 309.26745 319.40258 
L 312.19695 294.608022 
L 315.09855 332.633788 
L 318.02805 282.486021 
L 320.95755 155.358171 
L 323.85915 164.498831 
L 326.78865 265.330053 
L 329.71815 265.893077 
L 332.61975 259.314695 
L 335.54925 296.237723 
L 338.47875 278.432962 
L 341.38035 180.217734 
L 344.30985 187.175035 
L 347.21145 211.390736 
L 350.14095 215.910436 
L 353.07045 227.190305 
L 355.97205 208.587808 
L 358.90155 239.224893 
L 361.83105 210.755468 
L 364.73265 146.493339 
L 367.66215 116.021217 
L 370.59165 107.904947 
L 373.49325 58.372586 
L 376.42275 110.254987 
L 379.35225 135.508636 
L 382.25385 130.094651 
L 385.18335 201.496865 
L 388.08495 231.15249 
L 391.01445 137.447381 
L 393.94395 114.130056 
L 396.84555 184.34643 
L 399.77505 219.378594 
L 402.70455 154.240214 
L 405.60615 194.386291 
L 408.53565 174.795449 
L 411.46515 128.488053 
L 414.36675 118.348301 
L 417.29625 233.210893 
L 420.19785 237.435626 
L 423.12735 175.021963 
L 426.05685 66.805814 
L 428.95845 36.749048 
L 431.88795 54.117904 
L 434.81745 122.772487 
L 437.71905 226.63183 
L 440.64855 231.474259 
L 443.57805 259.833873 
L 446.47965 304.170936 
L 449.40915 342.284893 
L 452.33865 303.467344 
L 455.24025 303.224162 
L 458.16975 354.918792 
L 461.07135 370.863635 
L 464.00085 376.258354 
L 466.93035 377.050281 
L 469.83195 377.164874 
L 472.76145 377.132973 
L 475.69095 376.870281 
L 478.59255 374.810282 
L 481.52205 361.961628 
L 484.45155 335.951377 
L 487.35315 350.739983 
L 490.28265 353.270483 
L 493.18425 313.716424 
L 496.11375 321.841571 
L 499.04325 360.658511 
L 501.94485 374.2701 
L 504.87435 376.920627 
L 507.80385 377.150943 
L 519.46605 377.165189 
L 522.39555 377.135203 
L 525.29715 376.847589 
L 528.22665 374.661785 
L 531.15615 360.326434 
L 534.05775 319.632849 
L 536.98725 285.949253 
L 539.91675 306.957716 
L 542.81835 360.603038 
L 545.74785 374.715694 
L 548.67735 375.228586 
L 551.57895 363.940498 
L 554.50845 328.947687 
L 557.43795 296.482149 
L 560.33955 298.94201 
L 563.26905 322.690623 
L 566.17065 359.873189 
L 569.10015 374.744361 
L 572.02965 376.861349 
L 574.93125 377.170101 
L 580.79025 377.155179 
L 583.69185 377.045696 
L 586.62135 376.184391 
L 589.55085 370.111591 
L 592.45245 345.140147 
L 595.38195 312.980661 
L 598.28355 310.40733 
L 601.21305 327.837101 
L 604.14255 359.307058 
L 607.04415 374.19141 
L 609.97365 375.836081 
L 612.90315 374.502705 
L 615.80475 371.201005 
L 618.73425 352.571144 
L 621.66375 341.649547 
L 624.56535 362.224299 
L 627.49485 358.373792 
L 630.42435 328.677009 
L 633.32595 317.584989 
L 636.25545 349.654156 
L 638.425 366.386339 
L 638.425 366.386339 
" clip-path="url(#p0bec6c97a5)" style="fill: none; stroke-dasharray: 11.1,4.8; stroke-dashoffset: 0; stroke: #808080; stroke-opacity: 0.7; stroke-width: 3"/>
   </g>
   <g id="line2d_27">
    <path d="M -1 377.170101 
L 233.37945 377.100009 
L 236.28105 376.859559 
L 239.21055 376.780204 
L 242.11215 376.547305 
L 245.04165 373.370855 
L 247.97115 362.784192 
L 250.87275 358.923031 
L 253.80225 348.30876 
L 256.73175 328.570196 
L 259.63335 355.047359 
L 262.56285 373.31674 
L 265.49235 376.160585 
L 268.39395 374.227006 
L 271.32345 368.910767 
L 274.22505 353.067789 
L 277.15455 322.664318 
L 280.08405 322.543794 
L 282.98565 356.469047 
L 285.91515 373.660574 
L 288.84465 376.770052 
L 291.74625 377.050814 
L 294.67575 376.484596 
L 297.60525 375.52498 
L 300.50685 376.086825 
L 303.43635 376.78773 
L 306.36585 376.959565 
L 309.26745 376.75377 
L 315.09855 374.522291 
L 318.02805 374.546808 
L 320.95755 373.718282 
L 323.85915 374.390984 
L 326.78865 374.622705 
L 332.61975 368.717188 
L 335.54925 369.594503 
L 338.47875 371.948867 
L 341.38035 372.536887 
L 344.30985 372.204486 
L 347.21145 372.498781 
L 350.14095 373.226649 
L 353.07045 373.2376 
L 358.90155 375.989034 
L 361.83105 376.0001 
L 367.66215 374.817124 
L 373.49325 372.887466 
L 376.42275 374.03436 
L 379.35225 373.992437 
L 382.25385 372.570811 
L 385.18335 371.832776 
L 388.08495 371.911618 
L 391.01445 372.678772 
L 393.94395 372.466294 
L 396.84555 374.189155 
L 399.77505 374.849716 
L 402.70455 374.375738 
L 405.60615 375.515964 
L 408.53565 375.907962 
L 411.46515 374.561787 
L 414.36675 373.07967 
L 417.29625 374.377122 
L 420.19785 374.45721 
L 423.12735 374.285327 
L 428.95845 371.383075 
L 431.88795 372.604833 
L 434.81745 374.820205 
L 437.71905 374.64558 
L 440.64855 372.145673 
L 443.57805 371.234088 
L 449.40915 376.388795 
L 452.33865 376.794445 
L 461.07135 377.024772 
L 466.93035 377.165801 
L 478.59255 377.150927 
L 481.52205 377.044612 
L 484.45155 376.812127 
L 487.35315 376.912775 
L 490.28265 376.839738 
L 493.18425 376.267846 
L 496.11375 376.367759 
L 499.04325 376.834923 
L 501.94485 377.092813 
L 507.80385 377.169085 
L 531.15615 377.14982 
L 534.05775 377.056434 
L 536.98725 376.771005 
L 539.91675 376.763589 
L 542.81835 377.067039 
L 548.67735 377.144058 
L 551.57895 376.993976 
L 557.43795 376.126987 
L 560.33955 376.414146 
L 563.26905 376.898405 
L 566.17065 377.105928 
L 574.93125 377.170101 
L 586.62135 377.146978 
L 589.55085 377.012837 
L 592.45245 376.610667 
L 595.38195 376.544809 
L 598.28355 376.826059 
L 609.97365 377.138159 
L 615.80475 377.073253 
L 618.73425 376.853073 
L 621.66375 376.753782 
L 624.56535 376.934408 
L 627.49485 376.649723 
L 630.42435 375.905377 
L 633.32595 375.684921 
L 636.25545 376.446876 
L 638.425 376.873776 
L 638.425 376.873776 
" clip-path="url(#p0bec6c97a5)" style="fill: none; stroke: #0000ff; stroke-width: 3; stroke-linecap: square"/>
   </g>
   <g id="line2d_28">
    <path d="M -1 377.170101 
L 230.44995 377.14287 
L 233.37945 376.971334 
L 236.28105 376.289277 
L 239.21055 376.063598 
L 242.11215 375.395754 
L 245.04165 366.33667 
L 247.97115 336.054339 
L 250.87275 324.304041 
L 253.80225 290.831242 
L 256.73175 230.700165 
L 259.63335 310.380867 
L 262.56285 365.514902 
L 265.49235 374.004096 
L 268.39395 367.671088 
L 271.32345 350.449806 
L 274.22505 299.385117 
L 277.15455 201.905133 
L 280.08405 202.092777 
L 282.98565 310.959924 
L 285.91515 365.946346 
L 288.84465 375.867924 
L 291.74625 376.599508 
L 294.67575 373.955113 
L 297.60525 369.835691 
L 300.50685 372.510245 
L 303.43635 375.500725 
L 306.36585 376.154696 
L 309.26745 374.718441 
L 315.09855 360.210183 
L 318.02805 360.929578 
L 320.95755 355.899139 
L 323.85915 359.843235 
L 326.78865 360.245554 
L 332.61975 316.423841 
L 335.54925 322.338122 
L 338.47875 338.546066 
L 341.38035 342.349963 
L 344.30985 338.738481 
L 347.21145 339.862644 
L 350.14095 345.384286 
L 353.07045 345.525154 
L 355.97205 356.460672 
L 358.90155 366.667241 
L 361.83105 366.066127 
L 364.73265 360.088246 
L 367.66215 353.575262 
L 370.59165 341.91302 
L 373.49325 329.329854 
L 376.42275 341.992065 
L 379.35225 341.031077 
L 382.25385 323.716441 
L 385.18335 311.093871 
L 388.08495 306.35185 
L 391.01445 316.508998 
L 393.94395 313.772833 
L 396.84555 338.490549 
L 399.77505 347.419271 
L 402.70455 339.536682 
L 405.60615 354.152775 
L 408.53565 358.467888 
L 411.46515 336.533919 
L 414.36675 312.057262 
L 417.29625 326.643597 
L 420.19785 318.531895 
L 423.12735 308.70296 
L 426.05685 261.178469 
L 428.95845 206.146483 
L 431.88795 233.376477 
L 434.81745 299.450066 
L 437.71905 285.548146 
L 440.64855 180.138862 
L 443.57805 127.042191 
L 446.47965 228.834573 
L 449.40915 343.871616 
L 452.33865 367.513159 
L 455.24025 370.487599 
L 458.16975 372.910579 
L 461.07135 374.44239 
L 464.00085 376.580804 
L 466.93035 377.090353 
L 472.76145 377.166385 
L 475.69095 377.14009 
L 478.59255 376.933039 
L 481.52205 375.625738 
L 484.45155 372.827821 
L 487.35315 374.087139 
L 490.28265 373.154124 
L 493.18425 366.128384 
L 496.11375 367.333984 
L 499.04325 373.175721 
L 501.94485 376.268711 
L 504.87435 377.061402 
L 510.70545 377.170101 
L 528.22665 377.14901 
L 531.15615 377.012512 
L 534.05775 376.247586 
L 536.98725 373.812784 
L 539.91675 373.727749 
L 542.81835 376.297164 
L 545.74785 377.022563 
L 548.67735 376.965219 
L 551.57895 375.777499 
L 557.43795 368.397182 
L 560.33955 370.501336 
L 563.26905 374.994552 
L 566.17065 376.702764 
L 569.10015 377.126669 
L 580.79025 377.168501 
L 586.62135 377.071621 
L 589.55085 376.494257 
L 592.45245 374.66462 
L 595.38195 374.134766 
L 598.28355 375.424803 
L 601.21305 375.929367 
L 604.14255 376.731684 
L 607.04415 377.070554 
L 609.97365 376.965515 
L 612.90315 376.712658 
L 615.80475 376.702657 
L 618.73425 375.833031 
L 621.66375 375.302166 
L 624.56535 375.93576 
L 627.49485 374.230563 
L 630.42435 369.818563 
L 633.32595 367.642811 
L 636.25545 372.008444 
L 638.425 375.033457 
L 638.425 375.033457 
" clip-path="url(#p0bec6c97a5)" style="fill: none; stroke: #0000ff; stroke-opacity: 0.5; stroke-width: 3; stroke-linecap: square"/>
   </g>
   <g id="patch_3">
    <path d="M 65.8625 400.999575 
L 623.8625 400.999575 
" style="fill: none; stroke: #000000; stroke-width: 2; stroke-linejoin: miter; stroke-linecap: square"/>
   </g>
   <g id="legend_1">
    <g id="patch_4">
     <path d="M 79.8625 117.557075 
L 271.946875 117.557075 
Q 275.946875 117.557075 275.946875 113.557075 
L 275.946875 26.919575 
Q 275.946875 22.919575 271.946875 22.919575 
L 79.8625 22.919575 
Q 75.8625 22.919575 75.8625 26.919575 
L 75.8625 113.557075 
Q 75.8625 117.557075 79.8625 117.557075 
z
" style="fill: #ffffff; opacity: 0.8; stroke: #cccccc; stroke-linejoin: miter"/>
    </g>
    <g id="line2d_29">
     <path d="M 83.8625 39.11645 
L 103.8625 39.11645 
L 123.8625 39.11645 
" style="fill: none; stroke-dasharray: 11.1,4.8; stroke-dashoffset: 0; stroke: #808080; stroke-opacity: 0.7; stroke-width: 3"/>
    </g>
    <g id="text_16">
     <!-- Au -->
     <g transform="translate(139.8625 46.11645) scale(0.2 -0.2)">
      <defs>
       <path id="DejaVuSerif-41" d="M 1281 1691 
L 2994 1691 
L 2138 3909 
L 1281 1691 
z
M -38 0 
L -38 331 
L 372 331 
L 2034 4666 
L 2559 4666 
L 4225 331 
L 4684 331 
L 4684 0 
L 2988 0 
L 2988 331 
L 3506 331 
L 3116 1356 
L 1153 1356 
L 763 331 
L 1275 331 
L 1275 0 
L -38 0 
z
" transform="scale(0.015625)"/>
      </defs>
      <use xlink:href="#DejaVuSerif-41"/>
      <use xlink:href="#DejaVuSerif-75" x="72.216797"/>
     </g>
    </g>
    <g id="line2d_30">
     <path d="M 83.8625 68.4727 
L 103.8625 68.4727 
L 123.8625 68.4727 
" style="fill: none; stroke: #0000ff; stroke-width: 3; stroke-linecap: square"/>
    </g>
    <g id="text_17">
     <!-- Bilayer 1 : H -->
     <g transform="translate(139.8625 75.4727) scale(0.2 -0.2)">
      <defs>
       <path id="DejaVuSerif-42" d="M 1581 331 
L 2516 331 
Q 3078 331 3337 575 
Q 3597 819 3597 1350 
Q 3597 1878 3339 2120 
Q 3081 2363 2516 2363 
L 1581 2363 
L 1581 331 
z
M 1581 2694 
L 2375 2694 
Q 2888 2694 3123 2891 
Q 3359 3088 3359 3513 
Q 3359 3941 3123 4136 
Q 2888 4331 2375 4331 
L 1581 4331 
L 1581 2694 
z
M 353 0 
L 353 331 
L 947 331 
L 947 4331 
L 353 4331 
L 353 4666 
L 2656 4666 
Q 3363 4666 3720 4377 
Q 4078 4088 4078 3513 
Q 4078 3097 3829 2850 
Q 3581 2603 3103 2547 
Q 3697 2472 4005 2167 
Q 4313 1863 4313 1350 
Q 4313 656 3875 328 
Q 3438 0 2509 0 
L 353 0 
z
" transform="scale(0.015625)"/>
       <path id="DejaVuSerif-69" d="M 622 4353 
Q 622 4497 726 4603 
Q 831 4709 978 4709 
Q 1122 4709 1226 4603 
Q 1331 4497 1331 4353 
Q 1331 4206 1228 4103 
Q 1125 4000 978 4000 
Q 831 4000 726 4103 
Q 622 4206 622 4353 
z
M 1356 331 
L 1900 331 
L 1900 0 
L 231 0 
L 231 331 
L 781 331 
L 781 2988 
L 231 2988 
L 231 3322 
L 1356 3322 
L 1356 331 
z
" transform="scale(0.015625)"/>
       <path id="DejaVuSerif-6c" d="M 1313 331 
L 1856 331 
L 1856 0 
L 184 0 
L 184 331 
L 738 331 
L 738 4531 
L 184 4531 
L 184 4863 
L 1313 4863 
L 1313 331 
z
" transform="scale(0.015625)"/>
       <path id="DejaVuSerif-79" d="M 1381 -609 
L 1600 -56 
L 359 2988 
L -19 2988 
L -19 3322 
L 1509 3322 
L 1509 2988 
L 978 2988 
L 1913 703 
L 2847 2988 
L 2350 2988 
L 2350 3322 
L 3597 3322 
L 3597 2988 
L 3225 2988 
L 1703 -750 
Q 1547 -1138 1356 -1280 
Q 1166 -1422 819 -1422 
Q 672 -1422 517 -1397 
Q 363 -1372 206 -1325 
L 206 -691 
L 500 -691 
Q 519 -903 608 -995 
Q 697 -1088 884 -1088 
Q 1056 -1088 1161 -992 
Q 1266 -897 1381 -609 
z
" transform="scale(0.015625)"/>
       <path id="DejaVuSerif-72" d="M 3059 3328 
L 3059 2497 
L 2728 2497 
Q 2713 2744 2591 2866 
Q 2469 2988 2234 2988 
Q 1809 2988 1582 2694 
Q 1356 2400 1356 1850 
L 1356 331 
L 2022 331 
L 2022 0 
L 263 0 
L 263 331 
L 781 331 
L 781 2994 
L 231 2994 
L 231 3322 
L 1356 3322 
L 1356 2731 
Q 1525 3078 1790 3245 
Q 2056 3413 2438 3413 
Q 2578 3413 2733 3391 
Q 2888 3369 3059 3328 
z
" transform="scale(0.015625)"/>
       <path id="DejaVuSerif-3a" d="M 666 325 
Q 666 500 786 622 
Q 906 744 1081 744 
Q 1256 744 1376 622 
Q 1497 500 1497 325 
Q 1497 150 1378 29 
Q 1259 -91 1081 -91 
Q 903 -91 784 29 
Q 666 150 666 325 
z
M 666 2363 
Q 666 2538 786 2658 
Q 906 2778 1081 2778 
Q 1259 2778 1378 2659 
Q 1497 2541 1497 2363 
Q 1497 2184 1378 2065 
Q 1259 1947 1081 1947 
Q 906 1947 786 2067 
Q 666 2188 666 2363 
z
" transform="scale(0.015625)"/>
       <path id="DejaVuSerif-48" d="M 353 0 
L 353 331 
L 947 331 
L 947 4331 
L 353 4331 
L 353 4666 
L 2175 4666 
L 2175 4331 
L 1581 4331 
L 1581 2719 
L 4000 2719 
L 4000 4331 
L 3406 4331 
L 3406 4666 
L 5228 4666 
L 5228 4331 
L 4634 4331 
L 4634 331 
L 5228 331 
L 5228 0 
L 3406 0 
L 3406 331 
L 4000 331 
L 4000 2338 
L 1581 2338 
L 1581 331 
L 2175 331 
L 2175 0 
L 353 0 
z
" transform="scale(0.015625)"/>
      </defs>
      <use xlink:href="#DejaVuSerif-42"/>
      <use xlink:href="#DejaVuSerif-69" x="73.486328"/>
      <use xlink:href="#DejaVuSerif-6c" x="105.46875"/>
      <use xlink:href="#DejaVuSerif-61" x="137.451172"/>
      <use xlink:href="#DejaVuSerif-79" x="197.070312"/>
      <use xlink:href="#DejaVuSerif-65" x="253.564453"/>
      <use xlink:href="#DejaVuSerif-72" x="312.744141"/>
      <use xlink:href="#DejaVuSerif-20" x="360.546875"/>
      <use xlink:href="#DejaVuSerif-31" x="392.333984"/>
      <use xlink:href="#DejaVuSerif-20" x="455.957031"/>
      <use xlink:href="#DejaVuSerif-3a" x="487.744141"/>
      <use xlink:href="#DejaVuSerif-20" x="521.435547"/>
      <use xlink:href="#DejaVuSerif-48" x="553.222656"/>
     </g>
    </g>
    <g id="line2d_31">
     <path d="M 83.8625 98.113325 
L 103.8625 98.113325 
L 123.8625 98.113325 
" style="fill: none; stroke: #0000ff; stroke-opacity: 0.5; stroke-width: 3; stroke-linecap: square"/>
    </g>
    <g id="text_18">
     <!-- Bilayer 1 : O -->
     <g transform="translate(139.8625 105.113325) scale(0.2 -0.2)">
      <use xlink:href="#DejaVuSerif-42"/>
      <use xlink:href="#DejaVuSerif-69" x="73.486328"/>
      <use xlink:href="#DejaVuSerif-6c" x="105.46875"/>
      <use xlink:href="#DejaVuSerif-61" x="137.451172"/>
      <use xlink:href="#DejaVuSerif-79" x="197.070312"/>
      <use xlink:href="#DejaVuSerif-65" x="253.564453"/>
      <use xlink:href="#DejaVuSerif-72" x="312.744141"/>
      <use xlink:href="#DejaVuSerif-20" x="360.546875"/>
      <use xlink:href="#DejaVuSerif-31" x="392.333984"/>
      <use xlink:href="#DejaVuSerif-20" x="455.957031"/>
      <use xlink:href="#DejaVuSerif-3a" x="487.744141"/>
      <use xlink:href="#DejaVuSerif-20" x="521.435547"/>
      <use xlink:href="#DejaVuSerif-4f" x="553.222656"/>
     </g>
    </g>
   </g>
  </g>
 </g>
 <defs>
  <clipPath id="p0bec6c97a5">
   <rect x="65.8625" y="12.919575" width="558" height="388.08"/>
  </clipPath>
 </defs>
</svg>
